<?xml version="1.0" encoding="utf-8"?>
<!-- Generator: Adobe Illustrator 27.2.0, SVG Export Plug-In . SVG Version: 6.00 Build 0)  -->
<svg version="1.1" id="Capa_1" xmlns="http://www.w3.org/2000/svg" xmlns:xlink="http://www.w3.org/1999/xlink" x="0px" y="0px"
	 viewBox="0 0 91.3 165.8" style="enable-background:new 0 0 91.3 165.8;" xml:space="preserve">
<style type="text/css">
	.Arqueado:_x0020_verde{fill:url(#SVGID_1_);stroke:#FFFFFF;stroke-width:0.25;stroke-miterlimit:1;}
	.st0{fill:#FFFFFF;}
</style>
<linearGradient id="SVGID_1_" gradientUnits="userSpaceOnUse" x1="-2305.4629" y1="698.314" x2="-2304.7559" y2="697.6069">
	<stop  offset="0" style="stop-color:#1EAB4B"/>
	<stop  offset="0.9831" style="stop-color:#19361A"/>
</linearGradient>
<g>
	<g>
		<path class="st0" d="M9.4,110.6c0-1.7,0-2,0-2.3c0-0.4-0.1-0.5-0.5-0.6c-0.1,0-0.3,0-0.4,0c-0.1,0-0.2,0-0.2-0.1
			c0-0.1,0.1-0.1,0.2-0.1c0.6,0,1.3,0,1.6,0c0.4,0,1.1,0,1.6,0c1.4,0,1.9,0.5,2,0.6c0.2,0.2,0.5,0.7,0.5,1.3c0,1.6-1.1,2.6-2.7,2.6
			c-0.1,0-0.2,0-0.2,0c-0.1,0-0.1,0-0.1-0.1c0-0.1,0.1-0.1,0.3-0.1c0.6,0,1.5-0.7,1.5-1.8c0-0.4,0-1.1-0.6-1.6
			c-0.4-0.4-0.8-0.4-1.1-0.4c-0.2,0-0.3,0-0.4,0c-0.1,0-0.1,0.1-0.1,0.2v4.4c0,1,0,1.9,0.1,2.3c0,0.3,0.1,0.5,0.4,0.6
			c0.2,0,0.4,0,0.6,0c0.1,0,0.2,0,0.2,0.1c0,0.1-0.1,0.1-0.2,0.1c-0.7,0-1.4,0-1.7,0c-0.3,0-0.9,0-1.4,0c-0.1,0-0.2,0-0.2-0.1
			c0-0.1,0-0.1,0.2-0.1c0.2,0,0.3,0,0.4,0c0.2,0,0.3-0.3,0.3-0.6c0.1-0.5,0.1-1.3,0.1-2.3V110.6z"/>
		<path class="st0" d="M15.6,111.5c0-1.9,1.2-4.3,4.5-4.3c2.7,0,4.4,1.6,4.4,4.1c0,2.5-1.8,4.5-4.5,4.5
			C16.9,115.8,15.6,113.5,15.6,111.5z M23.1,111.8c0-2.5-1.4-4-3.2-4c-1.3,0-2.7,0.7-2.7,3.4c0,2.3,1.3,4.1,3.4,4.1
			C21.3,115.3,23.1,114.9,23.1,111.8z"/>
		<path class="st0" d="M27.6,114.2c0,0.9,0.2,1.1,0.4,1.2c0.2,0.1,0.4,0.1,0.6,0.1c0.1,0,0.2,0,0.2,0.1c0,0.1-0.1,0.1-0.3,0.1
			c-0.7,0-1.1,0-1.4,0c-0.1,0-0.6,0-1.2,0c-0.1,0-0.2,0-0.2-0.1c0-0.1,0.1-0.1,0.2-0.1c0.1,0,0.3,0,0.5-0.1c0.3-0.1,0.3-0.4,0.3-1.4
			l0.1-6.5c0-0.2,0-0.4,0.1-0.4c0.1,0,0.2,0.1,0.4,0.3c0.1,0.1,1.8,1.9,3.4,3.5c0.7,0.7,2.2,2.3,2.4,2.5h0.1l-0.1-4.9
			c0-0.7-0.1-0.9-0.4-1c-0.2-0.1-0.4-0.1-0.6-0.1c-0.1,0-0.2,0-0.2-0.1c0-0.1,0.1-0.1,0.3-0.1c0.6,0,1.1,0,1.3,0c0.1,0,0.5,0,1.1,0
			c0.1,0,0.3,0,0.3,0.1c0,0.1-0.1,0.1-0.2,0.1c-0.1,0-0.2,0-0.3,0c-0.3,0.1-0.4,0.3-0.4,0.9l-0.1,6.9c0,0.2,0,0.3-0.1,0.3
			c-0.1,0-0.3-0.1-0.4-0.2c-0.7-0.7-2.1-2.1-3.2-3.2c-1.2-1.2-2.4-2.5-2.6-2.8h0L27.6,114.2z"/>
		<path class="st0" d="M39.3,108l-1.6,0c-0.6,0-0.9,0.1-1.1,0.3c-0.1,0.2-0.2,0.3-0.2,0.4c0,0.1-0.1,0.1-0.1,0.1
			c-0.1,0-0.1-0.1-0.1-0.2c0-0.2,0.2-1.2,0.2-1.3c0-0.1,0.1-0.2,0.1-0.2c0.1,0,0.2,0.1,0.5,0.1c0.3,0,0.7,0.1,1.1,0.1h4.3
			c0.7,0,1-0.1,1-0.1c0.1,0,0.1,0.1,0.1,0.2c0,0.2,0,1,0,1.3c0,0.1,0,0.2-0.1,0.2c-0.1,0-0.1-0.1-0.1-0.2l0-0.1
			c0-0.3-0.3-0.6-1.3-0.6l-1.4,0v4.5c0,1,0,1.9,0.1,2.3c0,0.3,0.1,0.5,0.4,0.6c0.2,0,0.4,0,0.6,0c0.1,0,0.2,0,0.2,0.1
			c0,0.1-0.1,0.1-0.2,0.1c-0.7,0-1.4,0-1.7,0c-0.3,0-0.9,0-1.4,0c-0.1,0-0.2,0-0.2-0.1c0-0.1,0-0.1,0.2-0.1c0.2,0,0.3,0,0.4,0
			c0.2,0,0.3-0.3,0.3-0.6c0.1-0.5,0.1-1.3,0.1-2.3V108z"/>
		<path class="st0" d="M46,110.6c0-1.7,0-2,0-2.3c0-0.4-0.1-0.6-0.4-0.6c-0.1,0-0.3,0-0.4,0c-0.1,0-0.2,0-0.2-0.1
			c0-0.1,0.1-0.1,0.3-0.1c0.4,0,1.1,0,1.4,0c0.3,0,0.9,0,1.3,0c0.1,0,0.2,0,0.2,0.1c0,0.1-0.1,0.1-0.2,0.1c-0.1,0-0.2,0-0.3,0
			c-0.3,0.1-0.4,0.2-0.4,0.6c0,0.3,0,0.7,0,2.3v1.9c0,1.1,0,1.9,0,2.4c0,0.3,0.1,0.5,0.4,0.5c0.2,0,0.4,0,0.6,0c0.1,0,0.2,0,0.2,0.1
			c0,0.1-0.1,0.1-0.2,0.1c-0.7,0-1.4,0-1.7,0c-0.3,0-0.9,0-1.4,0c-0.1,0-0.2,0-0.2-0.1c0-0.1,0-0.1,0.2-0.1c0.2,0,0.3,0,0.4,0
			c0.2,0,0.3-0.2,0.3-0.5c0.1-0.5,0.1-1.3,0.1-2.4V110.6z"/>
		<path class="st0" d="M52.5,112.5c0,1,0,1.9,0.1,2.3c0,0.3,0.1,0.6,0.4,0.6c0.2,0,0.4,0,0.5,0c0.1,0,0.2,0,0.2,0.1
			c0,0.1-0.1,0.1-0.2,0.1c-0.7,0-1.4,0-1.7,0c-0.3,0-1,0-1.4,0c-0.2,0-0.2,0-0.2-0.1c0-0.1,0-0.1,0.2-0.1c0.2,0,0.3,0,0.4,0
			c0.2,0,0.3-0.3,0.3-0.6c0.1-0.5,0.1-1.3,0.1-2.3v-1.9c0-1.7,0-2,0-2.3c0-0.4-0.1-0.5-0.5-0.6c-0.1,0-0.3,0-0.4,0
			c-0.1,0-0.2,0-0.2-0.1c0-0.1,0.1-0.1,0.3-0.1c0.6,0,1.3,0,1.6,0c0.4,0,2.6,0,2.9,0c0.2,0,0.3,0,0.4,0c0.1,0,0.1-0.1,0.2-0.1
			c0,0,0.1,0,0.1,0.1c0,0.1-0.1,0.2-0.1,0.5c0,0.1,0,0.8-0.1,0.9c0,0.1,0,0.2-0.1,0.2c-0.1,0-0.1-0.1-0.1-0.2c0-0.1,0-0.3-0.1-0.4
			c-0.1-0.2-0.3-0.3-0.7-0.3l-1.7,0c-0.1,0-0.1,0-0.1,0.2v2.7c0,0.1,0,0.1,0.1,0.1l1.4,0c0.2,0,0.3,0,0.5,0c0.2,0,0.4-0.1,0.5-0.2
			c0.1-0.1,0.1-0.1,0.1-0.1c0,0,0.1,0,0.1,0.1s-0.1,0.3-0.1,0.7c0,0.2,0,0.7,0,0.8c0,0.1,0,0.2-0.1,0.2c-0.1,0-0.1-0.1-0.1-0.2
			c0-0.1,0-0.2-0.1-0.3c-0.1-0.2-0.2-0.3-0.6-0.4c-0.3,0-1.4,0-1.6,0c-0.1,0-0.1,0-0.1,0.1V112.5z"/>
		<path class="st0" d="M58.1,110.6c0-1.7,0-2,0-2.3c0-0.4-0.1-0.6-0.4-0.6c-0.1,0-0.3,0-0.4,0c-0.1,0-0.2,0-0.2-0.1
			c0-0.1,0.1-0.1,0.3-0.1c0.4,0,1.1,0,1.4,0c0.3,0,0.9,0,1.3,0c0.1,0,0.2,0,0.2,0.1c0,0.1-0.1,0.1-0.2,0.1c-0.1,0-0.2,0-0.3,0
			c-0.3,0.1-0.4,0.2-0.4,0.6c0,0.3,0,0.7,0,2.3v1.9c0,1.1,0,1.9,0,2.4c0,0.3,0.1,0.5,0.4,0.5c0.2,0,0.4,0,0.6,0c0.1,0,0.2,0,0.2,0.1
			c0,0.1-0.1,0.1-0.2,0.1c-0.7,0-1.4,0-1.7,0c-0.3,0-0.9,0-1.4,0c-0.1,0-0.2,0-0.2-0.1c0-0.1,0-0.1,0.2-0.1c0.2,0,0.3,0,0.4,0
			c0.2,0,0.3-0.2,0.3-0.5c0.1-0.5,0.1-1.3,0.1-2.4V110.6z"/>
		<path class="st0" d="M63.1,114.6c-1.1-0.9-1.4-2.2-1.4-3.2c0-0.7,0.2-2,1.3-3c0.8-0.7,1.8-1.2,3.5-1.2c0.7,0,1.1,0,1.6,0.1
			c0.4,0.1,0.8,0.2,1.1,0.2c0.1,0,0.2,0.1,0.2,0.1c0,0.1,0,0.2-0.1,0.6c0,0.4,0,1,0,1.2c0,0.2,0,0.3-0.1,0.3c-0.1,0-0.1-0.1-0.1-0.2
			c0-0.3-0.2-0.7-0.4-1c-0.4-0.4-1.2-0.7-2.2-0.7c-1,0-1.6,0.2-2.1,0.7c-0.8,0.7-1,1.8-1,2.8c0,2.6,2,3.9,3.4,3.9c1,0,1.6-0.1,2-0.6
			c0.2-0.2,0.3-0.5,0.4-0.7c0-0.2,0.1-0.2,0.1-0.2c0.1,0,0.1,0.1,0.1,0.2c0,0.1-0.1,1.1-0.2,1.5c-0.1,0.2-0.1,0.2-0.3,0.3
			c-0.4,0.2-1.3,0.3-2,0.3C65.4,115.8,64.1,115.5,63.1,114.6z"/>
		<path class="st0" d="M71.9,110.6c0-1.7,0-2,0-2.3c0-0.4-0.1-0.6-0.4-0.6c-0.1,0-0.3,0-0.4,0c-0.1,0-0.2,0-0.2-0.1
			c0-0.1,0.1-0.1,0.3-0.1c0.4,0,1.1,0,1.4,0c0.3,0,0.9,0,1.3,0c0.1,0,0.2,0,0.2,0.1c0,0.1-0.1,0.1-0.2,0.1c-0.1,0-0.2,0-0.3,0
			c-0.3,0.1-0.4,0.2-0.4,0.6c0,0.3,0,0.7,0,2.3v1.9c0,1.1,0,1.9,0,2.4c0,0.3,0.1,0.5,0.4,0.5c0.2,0,0.4,0,0.6,0c0.1,0,0.2,0,0.2,0.1
			c0,0.1-0.1,0.1-0.2,0.1c-0.7,0-1.4,0-1.7,0c-0.3,0-0.9,0-1.4,0c-0.1,0-0.2,0-0.2-0.1c0-0.1,0-0.1,0.2-0.1c0.2,0,0.3,0,0.4,0
			c0.2,0,0.3-0.2,0.3-0.5c0.1-0.5,0.1-1.3,0.1-2.4V110.6z"/>
		<path class="st0" d="M78.3,112.8C78.2,112.8,78.2,112.8,78.3,112.8l-0.7,1.7c-0.1,0.3-0.2,0.5-0.2,0.7c0,0.2,0.1,0.3,0.4,0.3H78
			c0.1,0,0.2,0,0.2,0.1c0,0.1-0.1,0.1-0.2,0.1c-0.4,0-0.8,0-1.2,0c-0.1,0-0.7,0-1.3,0c-0.1,0-0.2,0-0.2-0.1c0-0.1,0-0.1,0.1-0.1
			c0.1,0,0.3,0,0.3,0c0.5-0.1,0.7-0.4,0.9-1l2.7-6.9c0.1-0.3,0.2-0.4,0.3-0.4c0.1,0,0.2,0.1,0.3,0.3c0.3,0.6,2,5.1,2.7,6.7
			c0.4,1,0.7,1.1,1,1.2c0.2,0,0.3,0,0.5,0c0.1,0,0.1,0,0.1,0.1c0,0.1-0.1,0.1-0.5,0.1c-0.4,0-1.2,0-2.1,0c-0.2,0-0.3,0-0.3-0.1
			c0-0.1,0-0.1,0.2-0.1c0.1,0,0.2-0.1,0.1-0.3l-0.9-2.3c0-0.1-0.1-0.1-0.1-0.1H78.3z M80.5,112.3C80.6,112.3,80.6,112.2,80.5,112.3
			l-0.9-2.8c0,0,0-0.1-0.1-0.1c0,0-0.1,0.1-0.1,0.1l-1,2.7c0,0,0,0.1,0,0.1H80.5z"/>
		<path class="st0" d="M1.5,126.3c0-1.7,0-2,0-2.3c0-0.4-0.1-0.5-0.5-0.6c-0.1,0-0.3,0-0.4,0c-0.1,0-0.2,0-0.2-0.1
			c0-0.1,0.1-0.1,0.2-0.1c0.6,0,1.3,0,1.6,0c0.3,0,1,0,1.3,0c0.2,0,0.2,0,0.2,0.1c0,0.1-0.1,0.1-0.2,0.1c-0.1,0-0.2,0-0.3,0
			c-0.3,0.1-0.4,0.2-0.4,0.6c0,0.3,0,0.7,0,2.3v1.5c0,1.6,0.3,2.3,0.9,2.7c0.5,0.4,1,0.4,1.4,0.4c0.5,0,1.1-0.2,1.5-0.6
			c0.6-0.6,0.6-1.6,0.6-2.7v-1.4c0-1.7,0-2,0-2.3c0-0.4-0.1-0.5-0.5-0.6c-0.1,0-0.3,0-0.4,0c-0.1,0-0.2,0-0.2-0.1
			c0-0.1,0.1-0.1,0.2-0.1c0.6,0,1.2,0,1.3,0c0.1,0,0.8,0,1.2,0c0.2,0,0.2,0,0.2,0.1c0,0.1-0.1,0.1-0.2,0.1c-0.1,0-0.2,0-0.3,0
			c-0.3,0.1-0.4,0.2-0.4,0.6c0,0.3,0,0.7,0,2.3v1.2c0,1.2-0.1,2.5-1,3.3c-0.8,0.7-1.6,0.8-2.3,0.8c-0.6,0-1.6,0-2.4-0.8
			c-0.6-0.5-1-1.3-1-2.9V126.3z"/>
		<path class="st0" d="M11.8,129.9c0,0.9,0.2,1.1,0.4,1.2c0.2,0.1,0.4,0.1,0.6,0.1c0.1,0,0.2,0,0.2,0.1c0,0.1-0.1,0.1-0.3,0.1
			c-0.7,0-1.1,0-1.4,0c-0.1,0-0.6,0-1.2,0c-0.1,0-0.2,0-0.2-0.1c0-0.1,0.1-0.1,0.2-0.1c0.1,0,0.3,0,0.5-0.1c0.3-0.1,0.3-0.4,0.3-1.4
			l0.1-6.5c0-0.2,0-0.4,0.1-0.4c0.1,0,0.2,0.1,0.4,0.3c0.1,0.1,1.8,1.9,3.4,3.5c0.7,0.7,2.2,2.3,2.4,2.5h0.1l-0.1-4.9
			c0-0.7-0.1-0.9-0.4-1c-0.2-0.1-0.4-0.1-0.6-0.1c-0.1,0-0.2,0-0.2-0.1c0-0.1,0.1-0.1,0.3-0.1c0.6,0,1.1,0,1.3,0c0.1,0,0.5,0,1.1,0
			c0.1,0,0.3,0,0.3,0.1c0,0.1-0.1,0.1-0.2,0.1c-0.1,0-0.2,0-0.3,0c-0.3,0.1-0.4,0.3-0.4,0.9l-0.1,6.9c0,0.2,0,0.3-0.1,0.3
			c-0.1,0-0.3-0.1-0.4-0.2c-0.7-0.7-2.1-2.1-3.2-3.2c-1.2-1.2-2.4-2.5-2.6-2.8h0L11.8,129.9z"/>
		<path class="st0" d="M21.8,126.3c0-1.7,0-2,0-2.3c0-0.4-0.1-0.6-0.4-0.6c-0.1,0-0.3,0-0.4,0c-0.1,0-0.2,0-0.2-0.1
			c0-0.1,0.1-0.1,0.3-0.1c0.4,0,1.1,0,1.4,0c0.3,0,0.9,0,1.3,0c0.1,0,0.2,0,0.2,0.1c0,0.1-0.1,0.1-0.2,0.1s-0.2,0-0.3,0
			c-0.3,0.1-0.4,0.2-0.4,0.6c0,0.3,0,0.7,0,2.3v1.9c0,1.1,0,1.9,0,2.4c0,0.3,0.1,0.5,0.4,0.5c0.2,0,0.4,0,0.6,0c0.1,0,0.2,0,0.2,0.1
			c0,0.1-0.1,0.1-0.2,0.1c-0.7,0-1.4,0-1.7,0c-0.3,0-0.9,0-1.4,0c-0.1,0-0.2,0-0.2-0.1c0-0.1,0-0.1,0.2-0.1c0.2,0,0.3,0,0.4,0
			c0.2,0,0.3-0.2,0.3-0.5c0.1-0.5,0.1-1.3,0.1-2.4V126.3z"/>
		<path class="st0" d="M26.5,124.2c-0.3-0.6-0.4-0.7-0.8-0.8c-0.2,0-0.3,0-0.4,0c-0.1,0-0.1,0-0.1-0.1c0-0.1,0.1-0.1,0.3-0.1
			c0.6,0,1.2,0,1.6,0c0.3,0,0.8,0,1.3,0c0.1,0,0.3,0,0.3,0.1c0,0.1-0.1,0.1-0.2,0.1c-0.2,0-0.3,0-0.4,0.1c-0.1,0.1-0.1,0.1-0.1,0.2
			c0,0.1,0.1,0.4,0.3,0.8l1.9,5h0c0.5-1.2,1.9-4.7,2.2-5.4c0.1-0.1,0.1-0.3,0.1-0.4c0-0.1,0-0.2-0.1-0.2c-0.1,0-0.3-0.1-0.4-0.1
			c-0.1,0-0.2,0-0.2-0.1c0-0.1,0.1-0.1,0.3-0.1c0.5,0,1,0,1.1,0c0.2,0,0.7,0,1,0c0.1,0,0.2,0,0.2,0.1c0,0.1-0.1,0.1-0.2,0.1
			c-0.1,0-0.3,0-0.5,0.1c-0.1,0.1-0.3,0.3-0.6,1c-0.4,1-0.7,1.6-1.3,3c-0.7,1.6-1.2,2.8-1.5,3.3c-0.3,0.6-0.3,0.8-0.5,0.8
			c-0.1,0-0.2-0.2-0.4-0.7L26.5,124.2z"/>
		<path class="st0" d="M36.3,126.3c0-1.7,0-2,0-2.3c0-0.4-0.1-0.5-0.5-0.6c-0.1,0-0.3,0-0.4,0c-0.1,0-0.2,0-0.2-0.1
			c0-0.1,0.1-0.1,0.2-0.1c0.6,0,1.3,0,1.6,0c0.4,0,2.5,0,2.7,0c0.2,0,0.4,0,0.5-0.1c0.1,0,0.1,0,0.2,0c0.1,0,0.1,0,0.1,0.1
			c0,0.1-0.1,0.2-0.1,0.7c0,0.1,0,0.6-0.1,0.7c0,0.1,0,0.1-0.1,0.1c-0.1,0-0.1-0.1-0.1-0.2c0-0.1,0-0.3-0.1-0.4
			c-0.1-0.2-0.2-0.3-0.7-0.4c-0.2,0-1.3,0-1.6,0c-0.1,0-0.1,0-0.1,0.1v2.8c0,0.1,0,0.1,0.1,0.1c0.2,0,1.5,0,1.8,0
			c0.3,0,0.4-0.1,0.5-0.2c0.1-0.1,0.1-0.1,0.2-0.1c0,0,0.1,0,0.1,0.1c0,0.1-0.1,0.2-0.1,0.8c0,0.2,0,0.7,0,0.7c0,0.1,0,0.2-0.1,0.2
			c-0.1,0-0.1,0-0.1-0.1c0-0.1,0-0.3,0-0.4c-0.1-0.2-0.2-0.4-0.6-0.4c-0.2,0-1.3,0-1.6,0c-0.1,0-0.1,0-0.1,0.1v0.9
			c0,0.4,0,1.4,0,1.7c0,0.8,0.2,0.9,1.3,0.9c0.3,0,0.7,0,1-0.1c0.3-0.1,0.4-0.4,0.5-0.8c0-0.1,0-0.2,0.1-0.2c0.1,0,0.1,0.1,0.1,0.2
			c0,0.3-0.1,1-0.1,1.2c-0.1,0.3-0.2,0.3-0.6,0.3c-1.7,0-2.4-0.1-3-0.1c-0.3,0-0.9,0-1.4,0c-0.1,0-0.2,0-0.2-0.1
			c0-0.1,0-0.1,0.2-0.1c0.2,0,0.3,0,0.4,0c0.2,0,0.3-0.3,0.3-0.6c0.1-0.5,0.1-1.3,0.1-2.3V126.3z"/>
		<path class="st0" d="M43.3,126.3c0-1.7,0-2,0-2.3c0-0.4-0.1-0.5-0.5-0.6c-0.1,0-0.3,0-0.4,0c-0.1,0-0.2,0-0.2-0.1
			c0-0.1,0.1-0.1,0.2-0.1c0.6,0,1.3,0,1.5,0c0.4,0,1.2,0,1.5,0c0.7,0,1.4,0.1,2,0.5c0.3,0.2,0.7,0.8,0.7,1.5c0,0.8-0.3,1.6-1.4,2.5
			c1,1.2,1.7,2.2,2.4,2.9c0.6,0.6,1.1,0.7,1.2,0.7c0.1,0,0.2,0,0.3,0c0.1,0,0.1,0,0.1,0.1c0,0.1-0.1,0.1-0.2,0.1h-1
			c-0.6,0-0.9-0.1-1.2-0.2c-0.5-0.3-0.9-0.8-1.5-1.6c-0.4-0.6-0.9-1.3-1.1-1.5c-0.1-0.1-0.1-0.1-0.2-0.1l-1,0c-0.1,0-0.1,0-0.1,0.1
			v0.2c0,1,0,1.9,0.1,2.3c0,0.3,0.1,0.6,0.4,0.6c0.2,0,0.4,0,0.5,0c0.1,0,0.1,0,0.1,0.1c0,0.1-0.1,0.1-0.2,0.1c-0.6,0-1.4,0-1.6,0
			c-0.2,0-0.9,0-1.3,0c-0.1,0-0.2,0-0.2-0.1c0-0.1,0-0.1,0.2-0.1c0.2,0,0.3,0,0.4,0c0.2,0,0.3-0.3,0.3-0.6c0.1-0.5,0.1-1.3,0.1-2.3
			V126.3z M44.6,127.2c0,0.1,0,0.2,0.1,0.2c0.2,0.1,0.6,0.1,0.8,0.1c0.4,0,0.6,0,0.8-0.2c0.3-0.2,0.6-0.7,0.6-1.6c0-1.6-1-2-1.7-2
			c-0.3,0-0.5,0-0.6,0c-0.1,0-0.1,0.1-0.1,0.2V127.2z"/>
		<path class="st0" d="M51.9,131.3c-0.2-0.1-0.2-0.1-0.2-0.4c0-0.6,0-1.3,0.1-1.4c0-0.2,0-0.3,0.1-0.3c0.1,0,0.1,0.1,0.1,0.2
			c0,0.1,0,0.4,0.1,0.6c0.2,0.8,0.9,1.1,1.6,1.1c1,0,1.5-0.7,1.5-1.2c0-0.5-0.2-1.1-1.1-1.8l-0.5-0.4c-1.2-0.9-1.6-1.7-1.6-2.6
			c0-1.2,1-2.1,2.5-2.1c0.7,0,1.2,0.1,1.5,0.2c0.1,0,0.2,0.1,0.2,0.1c0,0.1,0,0.5,0,1.3c0,0.2,0,0.3-0.1,0.3c-0.1,0-0.1-0.1-0.1-0.2
			c0-0.1-0.1-0.4-0.3-0.7c-0.2-0.2-0.5-0.5-1.2-0.5c-0.8,0-1.3,0.5-1.3,1.1c0,0.5,0.3,0.9,1.2,1.6l0.3,0.2c1.3,1,1.8,1.8,1.8,2.8
			c0,0.6-0.2,1.4-1,1.9c-0.5,0.4-1.2,0.4-1.7,0.4C52.9,131.6,52.4,131.5,51.9,131.3z"/>
		<path class="st0" d="M58.9,126.3c0-1.7,0-2,0-2.3c0-0.4-0.1-0.6-0.4-0.6c-0.1,0-0.3,0-0.4,0c-0.1,0-0.2,0-0.2-0.1
			c0-0.1,0.1-0.1,0.3-0.1c0.4,0,1.1,0,1.4,0c0.3,0,0.9,0,1.3,0c0.1,0,0.2,0,0.2,0.1c0,0.1-0.1,0.1-0.2,0.1c-0.1,0-0.2,0-0.3,0
			c-0.3,0.1-0.4,0.2-0.4,0.6c0,0.3,0,0.7,0,2.3v1.9c0,1.1,0,1.9,0,2.4c0,0.3,0.1,0.5,0.4,0.5c0.2,0,0.4,0,0.6,0c0.1,0,0.2,0,0.2,0.1
			c0,0.1-0.1,0.1-0.2,0.1c-0.7,0-1.4,0-1.7,0c-0.3,0-0.9,0-1.4,0c-0.1,0-0.2,0-0.2-0.1c0-0.1,0-0.1,0.2-0.1c0.2,0,0.3,0,0.4,0
			c0.2,0,0.3-0.2,0.3-0.5c0.1-0.5,0.1-1.3,0.1-2.4V126.3z"/>
		<path class="st0" d="M64,126.3c0-1.7,0-2,0-2.3c0-0.4-0.1-0.5-0.5-0.6c-0.1,0-0.3,0-0.4,0c-0.1,0-0.2,0-0.2-0.1
			c0-0.1,0.1-0.1,0.2-0.1c0.6,0,1.3,0,1.6,0c0.3,0,1,0,1.7,0c1.4,0,3.2,0,4.4,1.2c0.5,0.6,1.1,1.5,1.1,2.8c0,1.4-0.6,2.4-1.2,3.1
			c-0.5,0.5-1.6,1.3-3.7,1.3c-0.8,0-1.8-0.1-2.3-0.1c-0.3,0-0.9,0-1.4,0c-0.1,0-0.2,0-0.2-0.1c0-0.1,0-0.1,0.2-0.1
			c0.2,0,0.3,0,0.4,0c0.2,0,0.3-0.3,0.3-0.6c0.1-0.5,0.1-1.3,0.1-2.3V126.3z M65.4,127.5c0,1.2,0,2,0,2.2c0,0.3,0,0.7,0.1,0.8
			c0.1,0.2,0.6,0.4,1.4,0.4c1.1,0,1.9-0.2,2.5-0.8c0.7-0.6,0.9-1.6,0.9-2.7c0-1.4-0.6-2.3-1-2.7c-1-1-2.3-1.1-3.1-1.1
			c-0.2,0-0.6,0-0.7,0.1c-0.1,0-0.1,0.1-0.1,0.2c0,0.4,0,1.3,0,2.2V127.5z"/>
		<path class="st0" d="M74.7,128.6C74.6,128.6,74.6,128.6,74.7,128.6l-0.7,1.7c-0.1,0.3-0.2,0.5-0.2,0.7c0,0.2,0.1,0.3,0.4,0.3h0.2
			c0.1,0,0.2,0,0.2,0.1c0,0.1-0.1,0.1-0.2,0.1c-0.4,0-0.8,0-1.2,0c-0.1,0-0.7,0-1.3,0c-0.1,0-0.2,0-0.2-0.1c0-0.1,0-0.1,0.1-0.1
			c0.1,0,0.3,0,0.3,0c0.5-0.1,0.7-0.4,0.9-1l2.7-6.9c0.1-0.3,0.2-0.4,0.3-0.4c0.1,0,0.2,0.1,0.3,0.3c0.3,0.6,2,5.1,2.7,6.7
			c0.4,1,0.7,1.1,1,1.2c0.2,0,0.3,0,0.5,0c0.1,0,0.1,0,0.1,0.1c0,0.1-0.1,0.1-0.5,0.1c-0.4,0-1.2,0-2.1,0c-0.2,0-0.3,0-0.3-0.1
			c0-0.1,0-0.1,0.2-0.1c0.1,0,0.2-0.1,0.1-0.3l-0.9-2.3c0-0.1-0.1-0.1-0.1-0.1H74.7z M76.9,128C77,128,77,128,76.9,128l-0.9-2.8
			c0,0,0-0.1-0.1-0.1c0,0-0.1,0.1-0.1,0.1l-1,2.7c0,0,0,0.1,0,0.1H76.9z"/>
		<path class="st0" d="M82.7,126.3c0-1.7,0-2,0-2.3c0-0.4-0.1-0.5-0.5-0.6c-0.1,0-0.3,0-0.4,0c-0.1,0-0.2,0-0.2-0.1
			c0-0.1,0.1-0.1,0.2-0.1c0.6,0,1.3,0,1.6,0c0.3,0,1,0,1.7,0c1.4,0,3.2,0,4.4,1.2c0.5,0.6,1.1,1.5,1.1,2.8c0,1.4-0.6,2.4-1.2,3.1
			c-0.5,0.5-1.6,1.3-3.7,1.3c-0.8,0-1.8-0.1-2.3-0.1c-0.3,0-0.9,0-1.4,0c-0.1,0-0.2,0-0.2-0.1c0-0.1,0-0.1,0.2-0.1
			c0.2,0,0.3,0,0.4,0c0.2,0,0.3-0.3,0.3-0.6c0.1-0.5,0.1-1.3,0.1-2.3V126.3z M84.1,127.5c0,1.2,0,2,0,2.2c0,0.3,0,0.7,0.1,0.8
			c0.1,0.2,0.6,0.4,1.4,0.4c1.1,0,1.9-0.2,2.5-0.8c0.7-0.6,0.9-1.6,0.9-2.7c0-1.4-0.6-2.3-1.1-2.7c-1-1-2.3-1.1-3.1-1.1
			c-0.2,0-0.6,0-0.7,0.1c-0.1,0-0.1,0.1-0.1,0.2c0,0.4,0,1.3,0,2.2V127.5z"/>
		<path class="st0" d="M15.4,146.1c-1.1-0.9-1.4-2.2-1.4-3.2c0-0.7,0.2-2,1.3-3c0.8-0.7,1.8-1.2,3.5-1.2c0.7,0,1.1,0,1.6,0.1
			c0.4,0.1,0.8,0.2,1.1,0.2c0.1,0,0.2,0.1,0.2,0.1c0,0.1,0,0.2-0.1,0.6c0,0.4,0,1,0,1.2c0,0.2,0,0.3-0.1,0.3c-0.1,0-0.1-0.1-0.1-0.2
			c0-0.3-0.2-0.7-0.4-1c-0.4-0.4-1.2-0.7-2.2-0.7c-1,0-1.6,0.2-2.1,0.7c-0.8,0.7-1,1.8-1,2.8c0,2.6,2,3.9,3.4,3.9c1,0,1.6-0.1,2-0.6
			c0.2-0.2,0.3-0.5,0.4-0.7c0-0.2,0.1-0.2,0.1-0.2c0.1,0,0.1,0.1,0.1,0.2c0,0.1-0.1,1.1-0.2,1.5c-0.1,0.2-0.1,0.2-0.3,0.3
			c-0.4,0.2-1.3,0.3-2,0.3C17.7,147.3,16.4,147,15.4,146.1z"/>
		<path class="st0" d="M25.3,144.3C25.2,144.3,25.2,144.3,25.3,144.3l-0.7,1.7c-0.1,0.3-0.2,0.5-0.2,0.7c0,0.2,0.1,0.3,0.4,0.3H25
			c0.1,0,0.2,0,0.2,0.1c0,0.1-0.1,0.1-0.2,0.1c-0.3,0-0.8,0-1.2,0c-0.1,0-0.7,0-1.3,0c-0.1,0-0.2,0-0.2-0.1c0-0.1,0-0.1,0.1-0.1
			c0.1,0,0.3,0,0.3,0c0.5-0.1,0.7-0.4,0.9-1l2.7-6.9c0.1-0.3,0.2-0.4,0.3-0.4c0.1,0,0.2,0.1,0.3,0.3c0.3,0.6,2,5.1,2.7,6.7
			c0.4,1,0.7,1.1,1,1.2c0.2,0,0.3,0,0.5,0c0.1,0,0.1,0,0.1,0.1c0,0.1-0.1,0.1-0.5,0.1c-0.4,0-1.2,0-2.1,0c-0.2,0-0.3,0-0.3-0.1
			c0-0.1,0-0.1,0.2-0.1c0.1,0,0.2-0.1,0.1-0.3l-0.9-2.3c0-0.1-0.1-0.1-0.1-0.1H25.3z M27.5,143.8C27.6,143.8,27.6,143.7,27.5,143.8
			l-0.9-2.8c0,0,0-0.1-0.1-0.1s-0.1,0.1-0.1,0.1l-1,2.7c0,0,0,0.1,0,0.1H27.5z"/>
		<path class="st0" d="M34.1,139.5l-1.6,0c-0.6,0-0.9,0.1-1.1,0.3c-0.1,0.2-0.2,0.3-0.2,0.4c0,0.1-0.1,0.1-0.1,0.1
			c-0.1,0-0.1-0.1-0.1-0.2c0-0.2,0.2-1.2,0.2-1.3c0-0.1,0.1-0.2,0.1-0.2c0.1,0,0.2,0.1,0.5,0.1c0.3,0,0.7,0.1,1.1,0.1h4.3
			c0.7,0,1-0.1,1-0.1c0.1,0,0.1,0.1,0.1,0.2c0,0.2,0,1,0,1.3c0,0.1,0,0.2-0.1,0.2c-0.1,0-0.1-0.1-0.1-0.2l0-0.1
			c0-0.3-0.3-0.6-1.3-0.6l-1.4,0v4.5c0,1,0,1.9,0.1,2.3c0,0.3,0.1,0.5,0.4,0.6c0.2,0,0.4,0,0.6,0c0.1,0,0.2,0,0.2,0.1
			c0,0.1-0.1,0.1-0.2,0.1c-0.7,0-1.4,0-1.7,0c-0.3,0-0.9,0-1.4,0c-0.1,0-0.2,0-0.2-0.1c0-0.1,0-0.1,0.2-0.1c0.2,0,0.3,0,0.4,0
			c0.2,0,0.3-0.3,0.3-0.6c0.1-0.5,0.1-1.3,0.1-2.3V139.5z"/>
		<path class="st0" d="M39.3,143c0-1.9,1.2-4.3,4.5-4.3c2.7,0,4.4,1.6,4.4,4.1c0,2.5-1.8,4.5-4.5,4.5C40.6,147.3,39.3,145,39.3,143z
			 M46.7,143.3c0-2.5-1.4-4-3.2-4c-1.3,0-2.7,0.7-2.7,3.4c0,2.3,1.3,4.1,3.4,4.1C44.9,146.8,46.7,146.4,46.7,143.3z M45.6,137.2
			c0.1,0.1,0,0.2-0.1,0.2c-0.1,0-0.2,0-0.4,0c-0.6,0.1-1.5,0.4-1.9,0.6c-0.1,0-0.2,0.1-0.2,0.1c0,0-0.1,0-0.1-0.1c0,0,0-0.1,0.1-0.1
			c0.4-0.4,1.6-1.3,1.8-1.4c0.1-0.1,0.2-0.1,0.2-0.1c0.1,0,0.1,0,0.2,0.1C45.4,136.7,45.5,136.9,45.6,137.2z"/>
		<path class="st0" d="M51.9,144c0,1.4,0,2.2,0.2,2.4c0.2,0.2,0.5,0.2,1.3,0.2c0.6,0,1,0,1.3-0.3c0.1-0.1,0.3-0.4,0.3-0.7
			c0-0.1,0-0.2,0.1-0.2c0.1,0,0.1,0.1,0.1,0.2c0,0.1-0.1,0.9-0.2,1.3c-0.1,0.2-0.1,0.3-0.7,0.3c-1.6,0-2.3-0.1-3.2-0.1
			c-0.3,0-0.9,0-1.4,0c-0.1,0-0.2,0-0.2-0.1c0-0.1,0-0.1,0.2-0.1c0.2,0,0.3,0,0.4,0c0.2,0,0.3-0.3,0.3-0.6c0.1-0.5,0.1-1.3,0.1-2.3
			v-1.9c0-1.7,0-2,0-2.3c0-0.4-0.1-0.5-0.5-0.6c-0.1,0-0.2,0-0.4,0c-0.1,0-0.2,0-0.2-0.1c0-0.1,0.1-0.1,0.2-0.1c0.5,0,1.2,0,1.5,0
			c0.3,0,1.1,0,1.5,0c0.2,0,0.2,0,0.2,0.1c0,0.1-0.1,0.1-0.2,0.1c-0.1,0-0.3,0-0.4,0c-0.3,0.1-0.4,0.2-0.4,0.6c0,0.3,0,0.7,0,2.3
			V144z"/>
		<path class="st0" d="M57.5,142.1c0-1.7,0-2,0-2.3c0-0.4-0.1-0.6-0.4-0.6c-0.1,0-0.3,0-0.4,0c-0.1,0-0.2,0-0.2-0.1
			c0-0.1,0.1-0.1,0.3-0.1c0.4,0,1.1,0,1.4,0c0.3,0,0.9,0,1.3,0c0.1,0,0.2,0,0.2,0.1c0,0.1-0.1,0.1-0.2,0.1c-0.1,0-0.2,0-0.3,0
			c-0.3,0.1-0.4,0.2-0.4,0.6c0,0.3,0,0.7,0,2.3v1.9c0,1.1,0,1.9,0,2.4c0,0.3,0.1,0.5,0.4,0.5c0.2,0,0.4,0,0.6,0c0.1,0,0.2,0,0.2,0.1
			c0,0.1-0.1,0.1-0.2,0.1c-0.7,0-1.4,0-1.7,0c-0.3,0-0.9,0-1.4,0c-0.1,0-0.2,0-0.2-0.1c0-0.1,0-0.1,0.2-0.1c0.2,0,0.3,0,0.4,0
			c0.2,0,0.3-0.2,0.3-0.5c0.1-0.5,0.1-1.3,0.1-2.4V142.1z"/>
		<path class="st0" d="M62.6,146.1c-1.1-0.9-1.4-2.2-1.4-3.2c0-0.7,0.2-2,1.3-3c0.8-0.7,1.8-1.2,3.5-1.2c0.7,0,1.1,0,1.6,0.1
			c0.4,0.1,0.8,0.2,1.1,0.2c0.1,0,0.2,0.1,0.2,0.1c0,0.1,0,0.2-0.1,0.6c0,0.4,0,1,0,1.2c0,0.2,0,0.3-0.1,0.3c-0.1,0-0.1-0.1-0.1-0.2
			c0-0.3-0.2-0.7-0.4-1c-0.4-0.4-1.2-0.7-2.2-0.7c-1,0-1.6,0.2-2.1,0.7c-0.8,0.7-1,1.8-1,2.8c0,2.6,2,3.9,3.4,3.9c1,0,1.6-0.1,2-0.6
			c0.2-0.2,0.3-0.5,0.4-0.7c0-0.2,0.1-0.2,0.1-0.2c0.1,0,0.1,0.1,0.1,0.2c0,0.1-0.1,1.1-0.2,1.5c-0.1,0.2-0.1,0.2-0.3,0.3
			c-0.4,0.2-1.3,0.3-2,0.3C64.8,147.3,63.6,147,62.6,146.1z"/>
		<path class="st0" d="M72.5,144.3C72.4,144.3,72.4,144.3,72.5,144.3l-0.7,1.7c-0.1,0.3-0.2,0.5-0.2,0.7c0,0.2,0.1,0.3,0.4,0.3h0.2
			c0.1,0,0.2,0,0.2,0.1c0,0.1-0.1,0.1-0.2,0.1c-0.3,0-0.8,0-1.2,0c-0.1,0-0.7,0-1.3,0c-0.1,0-0.2,0-0.2-0.1c0-0.1,0-0.1,0.1-0.1
			c0.1,0,0.3,0,0.3,0c0.5-0.1,0.7-0.4,0.9-1l2.7-6.9c0.1-0.3,0.2-0.4,0.3-0.4c0.1,0,0.2,0.1,0.3,0.3c0.3,0.6,2,5.1,2.7,6.7
			c0.4,1,0.7,1.1,1,1.2c0.2,0,0.3,0,0.5,0c0.1,0,0.1,0,0.1,0.1c0,0.1-0.1,0.1-0.5,0.1c-0.4,0-1.2,0-2.1,0c-0.2,0-0.3,0-0.3-0.1
			c0-0.1,0-0.1,0.2-0.1c0.1,0,0.2-0.1,0.1-0.3l-0.9-2.3c0-0.1-0.1-0.1-0.1-0.1H72.5z M74.7,143.8C74.8,143.8,74.8,143.7,74.7,143.8
			l-0.9-2.8c0,0,0-0.1-0.1-0.1c0,0-0.1,0.1-0.1,0.1l-1,2.7c0,0,0,0.1,0,0.1H74.7z"/>
		<path class="st0" d="M17.6,157.8c0-1.7,0-2,0-2.3c0-0.4-0.1-0.5-0.5-0.6c-0.1,0-0.3,0-0.4,0c-0.1,0-0.2,0-0.2-0.1
			c0-0.1,0.1-0.1,0.2-0.1c0.6,0,1.3,0,1.6,0c0.3,0,1,0,1.7,0c1.4,0,3.2,0,4.4,1.2c0.5,0.6,1.1,1.5,1.1,2.8c0,1.4-0.6,2.4-1.2,3.1
			c-0.5,0.5-1.6,1.3-3.7,1.3c-0.8,0-1.8-0.1-2.3-0.1c-0.3,0-0.9,0-1.4,0c-0.1,0-0.2,0-0.2-0.1c0-0.1,0-0.1,0.2-0.1
			c0.2,0,0.3,0,0.4,0c0.2,0,0.3-0.3,0.3-0.6c0.1-0.5,0.1-1.3,0.1-2.3V157.8z M18.9,159c0,1.2,0,2,0,2.2c0,0.3,0,0.7,0.1,0.8
			c0.1,0.2,0.6,0.4,1.4,0.4c1.1,0,1.9-0.2,2.5-0.8c0.7-0.6,0.9-1.6,0.9-2.7c0-1.4-0.6-2.3-1.1-2.7c-1-1-2.3-1.1-3.1-1.1
			c-0.2,0-0.6,0-0.7,0.1c-0.1,0-0.1,0.1-0.1,0.2c0,0.4,0,1.3,0,2.2V159z"/>
		<path class="st0" d="M27.7,157.8c0-1.7,0-2,0-2.3c0-0.4-0.1-0.5-0.5-0.6c-0.1,0-0.3,0-0.4,0c-0.1,0-0.2,0-0.2-0.1
			c0-0.1,0.1-0.1,0.2-0.1c0.6,0,1.3,0,1.6,0c0.3,0,2.5,0,2.7,0c0.2,0,0.4,0,0.5-0.1c0.1,0,0.1,0,0.2,0c0.1,0,0.1,0,0.1,0.1
			c0,0.1-0.1,0.2-0.1,0.7c0,0.1,0,0.6-0.1,0.7c0,0.1,0,0.1-0.1,0.1c-0.1,0-0.1-0.1-0.1-0.2c0-0.1,0-0.3-0.1-0.4
			c-0.1-0.2-0.2-0.3-0.7-0.4c-0.2,0-1.3,0-1.6,0c-0.1,0-0.1,0-0.1,0.1v2.8c0,0.1,0,0.1,0.1,0.1c0.2,0,1.5,0,1.8,0
			c0.3,0,0.4-0.1,0.5-0.2c0.1-0.1,0.1-0.1,0.2-0.1c0,0,0.1,0,0.1,0.1c0,0.1-0.1,0.2-0.1,0.8c0,0.2,0,0.7,0,0.7c0,0.1,0,0.2-0.1,0.2
			c-0.1,0-0.1,0-0.1-0.1c0-0.1,0-0.3,0-0.4c-0.1-0.2-0.2-0.4-0.6-0.4c-0.2,0-1.3,0-1.6,0c-0.1,0-0.1,0-0.1,0.1v0.9
			c0,0.4,0,1.4,0,1.7c0,0.8,0.2,0.9,1.3,0.9c0.3,0,0.7,0,1-0.1c0.3-0.1,0.4-0.4,0.5-0.8c0-0.1,0-0.2,0.1-0.2c0.1,0,0.1,0.1,0.1,0.2
			c0,0.3-0.1,1-0.1,1.2c-0.1,0.3-0.2,0.3-0.6,0.3c-1.7,0-2.4-0.1-3-0.1c-0.3,0-0.9,0-1.4,0c-0.1,0-0.2,0-0.2-0.1
			c0-0.1,0-0.1,0.2-0.1c0.2,0,0.3,0,0.4,0c0.2,0,0.3-0.3,0.3-0.6c0.1-0.5,0.1-1.3,0.1-2.3V157.8z"/>
		<path class="st0" d="M38.6,161.9c-1.1-0.9-1.4-2.2-1.4-3.2c0-0.7,0.2-2,1.3-3c0.8-0.7,1.8-1.2,3.5-1.2c0.7,0,1.1,0,1.6,0.1
			c0.4,0.1,0.8,0.2,1.1,0.2c0.1,0,0.2,0.1,0.2,0.1c0,0.1,0,0.2-0.1,0.6c0,0.4,0,1,0,1.2c0,0.2,0,0.3-0.1,0.3c-0.1,0-0.1-0.1-0.1-0.2
			c0-0.3-0.2-0.7-0.4-1c-0.4-0.4-1.2-0.7-2.2-0.7c-1,0-1.6,0.2-2.1,0.7c-0.8,0.7-1,1.8-1,2.8c0,2.6,2,3.9,3.4,3.9c1,0,1.6-0.1,2-0.6
			c0.2-0.2,0.3-0.5,0.4-0.7c0-0.2,0.1-0.2,0.1-0.2c0.1,0,0.1,0.1,0.1,0.2c0,0.1-0.1,1.1-0.2,1.5c-0.1,0.2-0.1,0.2-0.3,0.3
			c-0.4,0.2-1.3,0.3-2,0.3C40.9,163.1,39.6,162.8,38.6,161.9z"/>
		<path class="st0" d="M53.1,158.1C53.1,158.1,53.2,158.1,53.1,158.1l0.1-0.3c0-1.7,0-2,0-2.3c0-0.4-0.1-0.5-0.5-0.6
			c-0.1,0-0.3,0-0.4,0c-0.1,0-0.2,0-0.2-0.1c0-0.1,0.1-0.1,0.2-0.1c0.6,0,1.3,0,1.6,0c0.3,0,1,0,1.4,0c0.2,0,0.2,0,0.2,0.1
			c0,0.1-0.1,0.1-0.2,0.1c-0.1,0-0.2,0-0.3,0c-0.3,0.1-0.4,0.2-0.4,0.6c0,0.3,0,0.7,0,2.3v1.9c0,1,0,1.9,0.1,2.3
			c0,0.3,0.1,0.5,0.4,0.6c0.2,0,0.4,0,0.6,0c0.1,0,0.2,0,0.2,0.1c0,0.1-0.1,0.1-0.2,0.1c-0.7,0-1.4,0-1.7,0c-0.3,0-0.9,0-1.4,0
			c-0.2,0-0.2,0-0.2-0.1c0-0.1,0-0.1,0.2-0.1c0.2,0,0.3,0,0.4,0c0.2,0,0.3-0.3,0.3-0.6c0.1-0.5,0.1-1.3,0.1-2.3v-1
			c0,0,0-0.1-0.1-0.1h-4.2c0,0-0.1,0-0.1,0.1v1c0,1,0,1.9,0.1,2.3c0,0.3,0.1,0.5,0.4,0.6c0.2,0,0.4,0,0.6,0c0.1,0,0.2,0,0.2,0.1
			c0,0.1-0.1,0.1-0.2,0.1c-0.7,0-1.4,0-1.7,0c-0.3,0-0.9,0-1.4,0c-0.1,0-0.2,0-0.2-0.1c0-0.1,0-0.1,0.2-0.1c0.2,0,0.3,0,0.4,0
			c0.2,0,0.3-0.3,0.3-0.6c0.1-0.5,0.1-1.3,0.1-2.3v-1.9c0-1.7,0-2,0-2.3c0-0.4-0.1-0.5-0.5-0.6c-0.1,0-0.3,0-0.4,0
			c-0.1,0-0.2,0-0.2-0.1c0-0.1,0.1-0.1,0.2-0.1c0.6,0,1.3,0,1.6,0c0.3,0,1,0,1.4,0c0.2,0,0.2,0,0.2,0.1c0,0.1-0.1,0.1-0.2,0.1
			c-0.1,0-0.2,0-0.3,0c-0.3,0.1-0.4,0.2-0.4,0.6c0,0.3,0,0.7,0,2.3v0.2c0,0.1,0,0.1,0.1,0.1H53.1z"/>
		<path class="st0" d="M58.3,157.8c0-1.7,0-2,0-2.3c0-0.4-0.1-0.6-0.4-0.6c-0.1,0-0.3,0-0.4,0c-0.1,0-0.2,0-0.2-0.1
			c0-0.1,0.1-0.1,0.3-0.1c0.4,0,1.1,0,1.4,0c0.3,0,0.9,0,1.3,0c0.1,0,0.2,0,0.2,0.1c0,0.1-0.1,0.1-0.2,0.1c-0.1,0-0.2,0-0.3,0
			c-0.3,0.1-0.4,0.2-0.4,0.6c0,0.3,0,0.7,0,2.3v1.9c0,1.1,0,1.9,0,2.4c0,0.3,0.1,0.5,0.4,0.5c0.2,0,0.4,0,0.6,0c0.1,0,0.2,0,0.2,0.1
			c0,0.1-0.1,0.1-0.2,0.1c-0.7,0-1.4,0-1.7,0c-0.3,0-0.9,0-1.4,0c-0.1,0-0.2,0-0.2-0.1c0-0.1,0-0.1,0.2-0.1c0.2,0,0.3,0,0.4,0
			c0.2,0,0.3-0.2,0.3-0.5c0.1-0.5,0.1-1.3,0.1-2.4V157.8z"/>
		<path class="st0" d="M64.8,159.8c0,1.4,0,2.2,0.2,2.4c0.2,0.2,0.5,0.2,1.3,0.2c0.6,0,1,0,1.3-0.3c0.1-0.1,0.3-0.4,0.3-0.7
			c0-0.1,0-0.2,0.1-0.2c0.1,0,0.1,0.1,0.1,0.2c0,0.1-0.1,0.9-0.2,1.3c-0.1,0.2-0.1,0.3-0.7,0.3c-1.6,0-2.3-0.1-3.2-0.1
			c-0.3,0-0.9,0-1.4,0c-0.1,0-0.2,0-0.2-0.1c0-0.1,0-0.1,0.2-0.1c0.2,0,0.3,0,0.4,0c0.2,0,0.3-0.3,0.3-0.6c0.1-0.5,0.1-1.3,0.1-2.3
			v-1.9c0-1.7,0-2,0-2.3c0-0.4-0.1-0.5-0.5-0.6c-0.1,0-0.2,0-0.4,0c-0.1,0-0.2,0-0.2-0.1c0-0.1,0.1-0.1,0.2-0.1c0.5,0,1.2,0,1.5,0
			c0.3,0,1.1,0,1.5,0c0.2,0,0.2,0,0.2,0.1c0,0.1-0.1,0.1-0.2,0.1c-0.1,0-0.3,0-0.4,0c-0.3,0.1-0.4,0.2-0.4,0.6c0,0.3,0,0.7,0,2.3
			V159.8z"/>
		<path class="st0" d="M70.4,157.8c0-1.7,0-2,0-2.3c0-0.4-0.1-0.5-0.5-0.6c-0.1,0-0.3,0-0.4,0c-0.1,0-0.2,0-0.2-0.1
			c0-0.1,0.1-0.1,0.2-0.1c0.6,0,1.3,0,1.6,0c0.4,0,2.5,0,2.7,0c0.2,0,0.4,0,0.5-0.1c0.1,0,0.1,0,0.2,0c0.1,0,0.1,0,0.1,0.1
			c0,0.1-0.1,0.2-0.1,0.7c0,0.1,0,0.6-0.1,0.7c0,0.1,0,0.1-0.1,0.1c-0.1,0-0.1-0.1-0.1-0.2c0-0.1,0-0.3-0.1-0.4
			c-0.1-0.2-0.2-0.3-0.7-0.4c-0.2,0-1.3,0-1.6,0c-0.1,0-0.1,0-0.1,0.1v2.8c0,0.1,0,0.1,0.1,0.1c0.2,0,1.5,0,1.8,0
			c0.3,0,0.4-0.1,0.5-0.2c0.1-0.1,0.1-0.1,0.2-0.1c0,0,0.1,0,0.1,0.1c0,0.1-0.1,0.2-0.1,0.8c0,0.2,0,0.7,0,0.7c0,0.1,0,0.2-0.1,0.2
			c-0.1,0-0.1,0-0.1-0.1c0-0.1,0-0.3,0-0.4c-0.1-0.2-0.2-0.4-0.6-0.4c-0.2,0-1.3,0-1.6,0c-0.1,0-0.1,0-0.1,0.1v0.9
			c0,0.4,0,1.4,0,1.7c0,0.8,0.2,0.9,1.3,0.9c0.3,0,0.7,0,1-0.1c0.3-0.1,0.4-0.4,0.5-0.8c0-0.1,0-0.2,0.1-0.2c0.1,0,0.1,0.1,0.1,0.2
			c0,0.3-0.1,1-0.1,1.2c-0.1,0.3-0.2,0.3-0.6,0.3c-1.7,0-2.4-0.1-3-0.1c-0.3,0-0.9,0-1.4,0c-0.1,0-0.2,0-0.2-0.1
			c0-0.1,0-0.1,0.2-0.1c0.2,0,0.3,0,0.4,0c0.2,0,0.3-0.3,0.3-0.6c0.1-0.5,0.1-1.3,0.1-2.3V157.8z"/>
	</g>
	<g>
		<path class="st0" d="M57.5,44.3c0.4,0,0.8-0.3,0.8-0.8s-0.3-0.8-0.8-0.8c-0.4,0-0.8,0.3-0.8,0.8S57.1,44.3,57.5,44.3z"/>
		<path class="st0" d="M33.4,73.9c-0.1,0-0.2,0.1-0.2,0.2c0,0.1,0.1,0.2,0.2,0.2c0.1,0,0.2-0.1,0.2-0.2C33.6,74,33.5,73.9,33.4,73.9
			z"/>
		<path class="st0" d="M42.8,74.4c0.1,0,0.2-0.1,0.2-0.2c0-0.1-0.1-0.2-0.2-0.2c-0.1,0-0.2,0.1-0.2,0.2
			C42.6,74.3,42.7,74.4,42.8,74.4z"/>
		<path class="st0" d="M20.1,67.2l1.8,1.1c0,0.2-0.1,0.5-0.1,0.7c0,2.4,1.4,4.3,4.2,4.9c0.2,0,0.4,0.1,0.5,0.1l-0.5,4.5v0
			c0,0.9,0.9,1.7,1.9,1.7c1.1,0,1.9-0.8,1.9-1.7v0l-0.5-4.7h-0.1v-0.3c0-0.4-0.2-0.9-0.6-1.3c0.3,0,0.8-0.1,1.2-0.3
			c0.8-0.5,1.1-1.4,1.1-1.5l0.1-0.5l1.3-0.7v0.3c0,0.7,0.3,1.4,0.8,1.9v1.1v0.2c-0.7,0.2-1.4,0.6-1.6,0.9l-0.4,0.3l0.1,0.6
			c0,0,0,0.2,0,0.2c0.2,0.6,1.1,1.1,2,1.1c0.4,0,0.6-0.1,0.9-0.1l0,0c0.1,0.2,0.3,0.5,0.5,0.8c0.2,0.4,0.4,0.6,0.7,0.9
			c-0.4,0.5-0.6,1-0.6,1.6c0,0.8,0.4,1.4,0.9,1.8c-0.2,0.3-0.4,0.7-0.4,1.2c0,0.7,0.3,1.3,0.9,1.8c-0.1,0.2-0.1,0.4-0.1,0.6
			c0,0.6,0.3,1.2,0.8,1.5c0,0.6,0.5,1.1,1.1,1.1c0.6,0,1.1-0.5,1.1-1.1c0.5-0.3,0.8-0.9,0.8-1.5c0-0.2-0.1-0.4-0.1-0.6
			c0.6-0.5,0.9-1.1,0.9-1.8c0-0.5-0.2-0.9-0.4-1.2c0.5-0.4,0.9-1,0.9-1.8c0-0.6-0.2-1.2-0.6-1.6c0.3-0.2,0.5-0.5,0.7-0.9
			c0.2-0.3,0.4-0.6,0.5-0.8l0,0c0.2,0,0.5,0.1,0.8,0.1c0.9,0,1.8-0.5,2-1.1c0,0,0-0.2,0-0.2l0.1-0.6l-0.4-0.3
			c-0.2-0.2-0.7-0.6-1.3-0.8v-1.2c0.7-0.5,1-1.3,1-2.1v-0.8h-0.8h-2c-0.8-0.9-2-1.4-3.2-1.4c-1.3,0-2.4,0.5-3.3,1.4h-1.7l2.5-1.4
			c0.1-0.1,0.1-0.2,0.1-0.3c-0.1-0.1-0.2-0.1-0.3-0.1l-4.6,2.7l-0.4-0.1c0.2-0.4,0.3-0.9,0.3-0.9l0-0.5l3.4-2.8
			c0.1-0.1,0.1-0.2,0-0.3c-0.1-0.1-0.2-0.1-0.3,0l-3.4,2.8l-0.2,0c0-0.1,0.1-0.2,0.1-0.3l1.1-1.3l-0.4-0.4c-0.1-0.1-0.2-0.1-0.2-0.2
			l1.5-1.8c0.1-0.1,0.1-0.2,0-0.3c-0.1-0.1-0.2-0.1-0.3,0l-1.5,1.8c-1-0.7-2.2-1.1-3.5-1.1c-0.9,0-1.7,0.2-2.4,0.5l-1-1.2
			c-0.1-0.1-0.2-0.1-0.3,0c-0.1,0.1-0.1,0.2,0,0.3l1,1.2c-0.5,0.3-0.9,0.6-1.2,1l-1.2-1c-0.1-0.1-0.2-0.1-0.3,0
			c-0.1,0.1-0.1,0.2,0,0.3l1.2,1c-0.4,0.5-0.7,1.1-0.8,1.7l-1.7-1c-0.1-0.1-0.2,0-0.3,0.1C20,67,20,67.1,20.1,67.2z M35.6,76
			c-0.3-0.5-0.6-1-0.8-1.2c-0.3-0.3-0.7,0-1.3,0c-0.7,0-1.2-0.4-1.2-0.5c0,0,0-0.2,0-0.2c0.2-0.2,0.8-0.7,1.5-0.7
			c0.8,0,1.8,0.4,2.7,2.2c0.2,0.3,0.5,0.5,0.8,0.7c-0.3,0.1-0.6,0.3-0.9,0.5C36,76.6,35.8,76.4,35.6,76z M36.1,73.7h0.5
			c0,0.2,0.1,0.9,0.1,0.9S36.2,73.8,36.1,73.7z M38.9,83.4c-0.3,0.1-0.5,0.2-0.7,0.4c-0.1,0.1-0.2,0.4,0,0.5c0.1,0.1,0.4,0.2,0.5,0
			c0.1-0.1,0.3-0.2,0.5-0.3c0,0.1,0,0.2,0,0.3c0,0.4-0.3,0.8-0.8,0.9l0,0.5c0,0.2-0.1,0.3-0.3,0.3c-0.2,0-0.3-0.1-0.3-0.3l0-0.5
			c-0.5-0.1-0.8-0.5-0.8-0.9c0-0.2,0.1-0.4,0.2-0.6c0.4-0.6,0.8-0.8,1.5-1.3c0,0,0.1,0,0.1-0.1c0,0,0,0,0,0c0,0,0,0,0,0c0,0,0,0,0,0
			c0,0,0,0,0,0c0.1-0.1,0.2-0.2,0.2-0.4c0-0.2-0.1-0.3-0.3-0.4c0.1,0,0.1-0.1,0.2-0.1c0.2-0.1,0.4-0.2,0.6-0.3
			c0.2,0.2,0.3,0.5,0.3,0.8C40,82.7,39.5,83.1,38.9,83.4z M39.1,80.6L39.1,80.6c-0.1,0.1-0.2,0.1-0.3,0.2c-0.4,0.2-0.8,0.4-1.1,0.6
			c0,0-0.1,0-0.1,0.1c0,0,0,0,0,0c0,0,0,0,0,0c-0.2,0.1-0.3,0.3-0.3,0.5c0,0.3,0.1,0.4,0.4,0.6c-0.2,0.2-0.5,0.4-0.7,0.6
			c-0.3-0.2-0.6-0.5-0.6-1.1c0-0.5,0.3-0.9,0.6-1.2c0,0,0,0,0,0c0.4-0.3,0.9-0.5,1.3-0.8c0.2-0.1,0.3-0.2,0.4-0.2
			c0.5-0.3,0.9-0.5,0.9-0.9c0-0.3-0.2-0.6-0.6-0.8c0.3-0.1,0.6-0.3,0.9-0.4c0.3,0.3,0.6,0.7,0.6,1.2C40.5,79.7,39.8,80.2,39.1,80.6z
			 M37.7,78.9c0-0.2,0.2-0.4,0.4-0.4c0.2,0,0.4,0.2,0.4,0.4s-0.2,0.4-0.4,0.4C37.9,79.2,37.7,79.1,37.7,78.9z M44,74.2
			c0,0,0,0.2,0,0.2c0,0.1-0.5,0.5-1.2,0.5c-0.7,0-1-0.3-1.3,0c-0.2,0.2-0.5,0.7-0.8,1.2c-0.2,0.4-0.5,0.7-0.9,0.9
			c-0.4,0.2-0.8,0.4-1.3,0.6c-0.3,0.1-0.6,0.2-0.9,0.4v0c-0.5,0.2-0.9,0.5-0.9,1c0,0.3,0.3,0.6,0.7,0.8c-0.3,0.2-0.6,0.3-0.8,0.5
			c-0.5-0.3-0.8-0.7-0.8-1.3c0-0.7,0.4-1.2,0.9-1.5c0.4-0.2,0.9-0.4,1.4-0.6c0.5-0.2,0.9-0.4,1.2-0.6c0,0,0,0,0,0
			c0.3-0.2,0.5-0.3,0.6-0.6c0.9-1.8,1.9-2.2,2.7-2.2C43.2,73.5,43.9,74,44,74.2z M37.4,73.7h1.4l-0.1,2.1c-0.2,0.1-0.6,0.3-1,0.4
			c-0.1,0-0.2,0.1-0.3,0.1L37.4,73.7z M39.6,74.6c0,0,0.1-0.7,0.1-0.9h0.5C40,73.8,39.6,74.6,39.6,74.6z M33.2,69.3h2.7
			c0.3,0,0.5,0.2,0.5,0.5c0,0,0,0.5,0,0.6c0.1,0,0.5,0,0.6,0c0-0.2,0-0.6,0-0.6c0-0.4-0.3-0.8-0.7-1L36,68.7l0.2-0.1
			c0.6-0.4,1.4-0.7,2.1-0.7c0.8,0,1.5,0.3,2.2,0.7l0.1,0.1l-0.2,0.1c-0.4,0.2-0.6,0.6-0.6,0.9c0,0,0,0.5,0,0.6c0.1,0,0.5,0,0.6,0
			c0-0.2,0-0.6,0-0.6c0-0.3,0.2-0.5,0.5-0.5h2.7v0.1c0,0.2,0,0.4-0.1,0.7h-1.8v0.3h1.7c-0.2,0.5-0.7,0.9-1.4,0.9c0,0-0.5,0-0.7,0
			c0,0.1,0,0.5,0,0.6c0.2,0,0.7,0,0.7,0s0.3,0,0.3,0h0.3v1H34v-1l0.5,0l0.3,0c0,0,0.5,0,0.7,0c0-0.1,0-0.5,0-0.6c-0.2,0-0.7,0-0.7,0
			c-0.7,0-1.2-0.4-1.4-0.9h1.7v-0.3h-1.8c-0.1-0.2-0.1-0.5-0.1-0.7V69.3z M29,78.5c0,0.5-0.5,0.9-1.1,0.9c-0.6,0-1.1-0.4-1.1-0.9
			l0.4-3.9h1.4L29,78.5z M29.6,71.2c-0.6,0.4-1.5,0.2-1.5,0.2s0.2-0.8,0.9-1.2c0.6-0.4,1.5-0.2,1.5-0.2S30.2,70.9,29.6,71.2z
			 M28.8,68.6c0.6-0.5,1.4-0.4,1.4-0.4s-0.1,0.8-0.6,1.3C29,70,28.1,70,28.1,70S28.2,69.1,28.8,68.6z M28.6,67.1
			c0.4-0.5,1.2-0.6,1.2-0.6s0.1,0.8-0.4,1.3c-0.4,0.5-1.2,0.6-1.2,0.6S28.1,67.6,28.6,67.1z M27.2,64.9c1.4,0,2.6,0.5,3.5,1.3
			l-0.2,0.2c-0.7-0.4-1.4-0.6-2.3-0.6c-2.2,0-3.7,1.5-3.7,3.3c0,1.5,0.9,2.8,2.6,3.2c1.1,0.2,1.3,0.8,1.3,1.1c0,0.1,0,0.2,0,0.3h-1
			c0-0.3-0.4-0.6-1.3-0.8c-2.3-0.5-3.5-1.9-3.5-4C22.7,66.7,24.5,64.9,27.2,64.9z M27.2,68.6c0.6,0.5,0.6,1.3,0.6,1.3
			S27,70,26.4,69.6c-0.6-0.5-0.6-1.3-0.6-1.3S26.6,68.2,27.2,68.6z M26.1,66.5c0,0,0.8,0.1,1.2,0.6c0.4,0.5,0.4,1.3,0.4,1.3
			s-0.8-0.1-1.2-0.6C26,67.3,26.1,66.5,26.1,66.5z M27,70.2c0.6,0.4,0.9,1.2,0.9,1.2s-0.8,0.2-1.5-0.2c-0.6-0.4-0.9-1.2-0.9-1.2
			S26.3,69.8,27,70.2z"/>
		<path class="st0" d="M67.2,72.3l-1.5-3.4c0.8-0.1,1.4-0.8,1.4-1.6c0-0.9-0.7-1.6-1.6-1.6c-0.6,0-1.2,0.4-1.4,0.9
			c-2,0.1-3.7-0.2-4.9-0.8c0-0.2,0.1-0.3,0.1-0.5c0-1.1-0.9-2-2-2c-1.1,0-2,0.9-2,2c0,0.2,0,0.3,0.1,0.5c-1.2,0.6-2.8,0.9-4.8,0.8
			c-0.3-0.5-0.8-0.9-1.4-0.9c-0.9,0-1.6,0.7-1.6,1.6c0,0.8,0.6,1.5,1.4,1.6l-1.5,3.4h-0.7v0.8c0,1.6,1.3,2.8,2.8,2.8
			c0.6,0,1.1-0.2,1.5-0.5l-1.6,2.5h0l0,0l0,0l0,0l-0.2,1.2l5.3,1.1c-0.1,0.3,0.4,0.6,0.8,0.7c0.2,0.1,0.6,0.1,0.8-0.1l0.1,2.1l0-0.1
			c0,0.6,0.5,1.1,1.1,1.1c0.6,0,1.1-0.5,1.1-1.1l0,0c0,0,0,0,0,0l0.1-1.4l3,1l2.6-6.4l0-0.4c0.3,0.1,0.7,0.2,1,0.2
			c1.6,0,2.8-1.3,2.8-2.8v-0.8H67.2z M66.5,72.3h-2.8l1.4-3.1L66.5,72.3z M62.9,74.7c-0.2,0-0.5-0.1-0.7-0.1
			c-0.5-0.1-0.9-0.4-1.3-0.6c-0.4-0.3-0.8-0.5-1.3-0.7c-0.1,0-0.3,0-0.4-0.1l0.3-4.4l5.1,0L63,72.3h-0.7v0.8
			C62.3,73.7,62.5,74.3,62.9,74.7z M49.6,69.2l1.4,3.1h-2.8L49.6,69.2z M51.6,72.3l-1.5-3.4l5.1,0l0.3,4c-0.3,0-0.6,0-0.9-0.1
			c-0.7-0.2-1.1-0.4-1.1-0.4l-0.3-0.2L53,72.5l-0.7,1.1c0-0.2,0-0.3,0-0.5v-0.8H51.6z M49.6,75.1c-1.1,0-2-0.9-2-2h4
			C51.6,74.2,50.7,75.1,49.6,75.1z M55.5,79.8c-0.2-0.5-0.5-0.9-1-1.1c-0.4-0.1-1-0.1-1.5,0c-0.6,0.1-1.3,0.1-1.9-0.1
			c-0.4-0.1-0.7-0.3-0.9-0.4c0.3-0.5,2.9-4.6,3.2-5.1c0.2,0.1,0.6,0.3,1,0.4c0.4,0.1,0.8,0.1,1.1,0.1l0.4,5.9
			C55.8,79.6,55.5,79.8,55.5,79.8z M57.6,82.9c0,0.2-0.1,0.3-0.3,0.3c-0.2,0-0.3-0.1-0.3-0.3L56,68.1h-6.8l0,0
			c-0.4,0-0.8-0.4-0.8-0.8c0-0.4,0.4-0.8,0.8-0.8c0.4,0,0.8,0.4,0.8,0.8c0,0,0,0,0,0.1c1.5,0.1,4.5,0.2,6.5-1.3
			c-0.2-0.2-0.3-0.5-0.3-0.8c0-0.6,0.5-1.2,1.2-1.2s1.2,0.5,1.2,1.2c0,0.3-0.1,0.6-0.3,0.8c2.1,1.5,5,1.4,6.5,1.3c0,0,0,0,0-0.1
			c0-0.4,0.4-0.8,0.8-0.8c0.4,0,0.8,0.4,0.8,0.8c0,0.4-0.4,0.8-0.8,0.8c0,0,0,0,0,0h-6.8L57.6,82.9z M60.8,81.1c0,0-0.4,0-0.8-0.1
			c-0.3-0.1-0.9-0.6-1.5-0.9l0.5-6.2c0.1,0,0.2,0,0.3,0c0.4,0.1,0.7,0.3,1.1,0.5c0.4,0.3,0.8,0.6,1.5,0.7c0.4,0.1,1,0.2,1.3,0.2
			C63,76.4,60.8,81.1,60.8,81.1z M65.1,75.1c-1.1,0-2-0.9-2-2h4C67.1,74.2,66.2,75.1,65.1,75.1z"/>
		<path class="st0" d="M23.6,51.2c0,3.1,2.4,4.5,4.4,5.2c0,0.3,0.3,0.6,0.5,0.7c-0.1,0.1-0.2,0.2-0.3,0.3C28,57.7,28,58,28,58.3
			c0.1,0.2,0.2,0.5,0.4,0.6c-0.5,0.3-1.3,0.9-1.3,1.7v0.6h6.3v-0.6c0-1-1-1.5-1.5-1.9c-0.1-0.1-0.2-0.2-0.3-0.2c0,0,0,0,0-0.1
			c0,0,1.1-0.3,1.1-1.1c0-0.4-0.3-0.8-0.5-0.9c0.1-0.1,0.2-0.2,0.3-0.3c0.1-0.3,0.2-0.6,0.1-0.8c0-0.2-0.1-0.3-0.2-0.4
			c0.2-0.1,0.4-0.2,0.5-0.3c0.9-0.6,2.1-1.5,2.1-3.2v-1.8h-2l0.1-0.6c0.2-0.1,0.5-0.2,0.7-0.2c0.3,0,0.6,0.2,0.8,0.2
			c0.3,0,0.4-0.2,0.4-0.2c0-0.1-0.2-0.1-0.3-0.1c-0.2,0-0.5-0.3-0.9-0.3c-0.2,0-0.4,0.1-0.6,0.1c-0.1-0.1-0.7-0.7-1-0.9h3.8v13.8
			h4.1c0,0,0-12.4,0-13.8c1.1,0,4.3,0,4.3,0v-4.1c0,0-3.1,0-4.3,0c0-1.2,0-4.9,0-4.9h-4.1v4.9h-4.3v3.9c-0.4-0.1-0.8-0.3-1-0.3
			c-0.6,0-1.3,0.1-1.3,0.1s-1-0.2-1.9-0.2C25.7,46.9,23.6,48.6,23.6,51.2z M32.7,44.2h4.3v-4.9h2.4v4.9h4.3v2.4h-4.3v14h-2.4v-14
			h-4.3V44.2z M32.7,60.5v0.1h-4.6v-0.1c0-0.5,1.1-1,1.6-1.5l1.2-0.3C30.9,59.2,32.7,59.9,32.7,60.5z M28.9,55.8l2.6-0.7
			c0.2-0.1,0.5,0.1,0.5,0.3c0.1,0.2-0.1,0.5-0.3,0.5l-2.6,0.7c-0.2,0.1-0.5-0.1-0.5-0.3C28.5,56.1,28.7,55.8,28.9,55.8z M31.9,57.7
			l-2.6,0.7c-0.2,0.1-0.5-0.1-0.5-0.3c-0.1-0.2,0.1-0.5,0.3-0.5l2.6-0.7c0.2-0.1,0.5,0.1,0.5,0.3C32.2,57.4,32.1,57.6,31.9,57.7z
			 M34.3,50.3v0.9c0,1.2-0.9,1.9-1.7,2.5c-0.3,0.2-1,0.7-1,0.7l-1.7,0.5c-0.3-0.4-1-0.8-1.5-1.2c-0.8-0.6-1.7-1.3-1.7-2.5v-0.9H34.3
			z M27.6,47.8c0.7,0,1.2,0,1.8,0.2c0,0,0.7-0.1,1.4-0.1c0.8,0,1.6,0.8,1.6,0.8l-0.1,0.4c0,0-0.4,0.5-1.5,0.5
			c-0.6,0-1.2-0.4-1.6-0.6c-0.5-0.2-1.1-0.2-1.6-0.2c-0.9,0-2.2,0.8-2.2,2.4c0,1.4,0.8,2.1,1.6,2.7c0.9,0.7,1.6,1,1.8,1.2l-0.1,0
			c-0.2,0.1-0.4,0.2-0.6,0.4c-1.7-0.6-3.7-1.8-3.7-4.3C24.5,49,26.2,47.8,27.6,47.8z"/>
		<path class="st0" d="M68.1,51.7c0-2.1-1.5-3.5-3.7-3.5h-2.8l-1.4-3.5c0.1-0.4,0.2-0.7,0.2-1.2c0-1.7-1.4-3-3-3c-1.7,0-3,1.4-3,3
			c0,0.4,0.1,0.8,0.2,1.2l-1.4,3.5h-2.8c-2.2,0-3.7,1.4-3.7,3.5c0,1.7,1.4,3,3,3c0.3,0,0.7-0.1,1-0.2l-1.2,3.2l-1.1,2.7
			c-0.3,0.7,0.2,0.9,0.2,0.9l0.6,0.3c0.4,0.2,0.7-0.1,0.9-0.4L51,60v0.3h0.9h11.3h0.9v-0.3l0.7,1.3c0.2,0.3,0.5,0.6,0.9,0.4l0.6-0.3
			c0,0,0.5-0.2,0.2-0.9l-1.1-2.7l-1.2-3.2c0.3,0.1,0.6,0.2,0.9,0.2C66.8,54.7,68.1,53.3,68.1,51.7z M57.5,41.4c1.2,0,2.2,1,2.2,2.2
			s-1,2.2-2.2,2.2c-1.2,0-2.1-1-2.1-2.2S56.3,41.4,57.5,41.4z M49.9,53.8c-1.2,0-2.1-0.9-2.1-2.1c0-1.6,1.1-2.6,2.8-2.6H53l-0.9,2.2
			c-0.3-0.8-1-1.2-1.9-1.2c-0.9,0-1.6,0.7-1.6,1.5c0,0.8,0.6,1.4,1.4,1.4c0.2,0,0.4-0.2,0.4-0.4c0-0.2-0.2-0.4-0.4-0.4
			c-0.2,0-0.5-0.1-0.5-0.5c0-0.4,0.4-0.7,0.7-0.7c0.7,0,1.2,0.5,1.2,1.4C51.5,53.2,50.8,53.8,49.9,53.8z M49.6,60.8l-0.2-0.1
			c0,0,4.1-10.4,5.9-15.1c0.3,0.3,0.6,0.6,1,0.7l0.8,1.4L49.6,60.8z M57.2,49.1h0.6l1.5,2.6h-3.7L57.2,49.1z M53.4,59.5h-1.5v-1.1
			l1.5-2.6V59.5z M60.7,59.5h-1.5v-5.6c0-0.3-0.2-0.5-0.5-0.5c-0.3,0-0.5,0.2-0.5,0.5v5.6h-1.5v-5.6c0-0.3-0.2-0.5-0.5-0.5
			c-0.3,0-0.5,0.2-0.5,0.5v5.6h-1.5v-5.4l0.9-1.5h4.7l0.9,1.5V59.5z M63.2,59.5h-1.5v-3.7l1.5,2.6V59.5z M65.7,60.7l-0.2,0.1
			l-8.1-14.2c0.1,0,0.1,0,0.2,0c0.9,0,1.7-0.4,2.3-1C61.6,50.2,65.7,60.7,65.7,60.7z M63.6,52.3c0-0.8,0.4-1.4,1.2-1.4
			c0.4,0,0.7,0.2,0.7,0.7c0,0.4-0.3,0.5-0.5,0.5c-0.2,0-0.4,0.2-0.4,0.4c0,0.2,0.2,0.4,0.4,0.4c0.8,0,1.4-0.6,1.4-1.4
			c0-0.9-0.7-1.5-1.6-1.5c-0.9,0-1.6,0.5-1.9,1.2L62,49.1h2.4c1.7,0,2.8,1,2.8,2.6c0,1.2-1,2.1-2.1,2.1
			C64.2,53.8,63.6,53.2,63.6,52.3z"/>
		<path class="st0" d="M30.9,48.8c0.1,0,0.2-0.1,0.2-0.2c0-0.1-0.1-0.2-0.2-0.2c-0.1,0-0.2,0.1-0.2,0.2
			C30.7,48.7,30.8,48.8,30.9,48.8z"/>
		<path class="st0" d="M56.7,22.6c0,0.3,0.3,0.8,0.4,0.9c0.3,0.2,0.8,0.4,0.9,0.4l0,0c0-0.1,0-0.3,0-0.4c0-1.6,1.5-2.6,1.5-2.6
			s0.1-0.2,0.1-0.3l-0.2-1.1c0-0.1,0-0.2-0.2-0.2l-0.9,0.2c-0.9,1.1-1.7,1.6-1.8,1.7C56.7,21.8,56.7,22.3,56.7,22.6z M57.2,21.5
			c0.7-0.5,1.1-1,1.4-1.3l0.1,0l0.2,0l0,0.1c0,0.1,0,0.3,0.1,0.4l0,0l0,0c-0.6,0.5-1.3,1.1-1.5,2.2l0,0.2l-0.1-0.2l0-0.1
			c0-0.1,0-0.4,0-0.4c0,0,0-0.1,0-0.1C57.3,22,57.3,21.8,57.2,21.5L57.2,21.5L57.2,21.5z"/>
		<path class="st0" d="M60,18.8c0.1,0.3,0.1,1.6,0.1,1.6c0.1-0.1,0.5-0.5,0.5-0.9c0-0.7-0.2-1.5-0.2-1.5c0-0.1-0.6-0.8-0.9-0.8
			c-0.1,0-0.3,0.2-0.4,0.5c-0.1,0.3-0.4,0.7-0.5,0.8l0,0.1C59.1,18.6,59.9,18.6,60,18.8z"/>
		<path class="st0" d="M25.4,26l0.7,0.9c0.4-0.3,0.8-0.6,1.2-0.8c0-0.1,0-0.1,0-0.2c0-0.1,0-0.3,0.1-0.4c0.1-0.3,0.3-0.5,0.6-0.7
			c0.2-0.1,0.3-0.1,0.5-0.1c0.3,0,0.7,0.2,0.9,0.4c0.4-0.1,0.9-0.3,1.3-0.3l-0.2-1.1c-0.9,0.2-1.8,0.5-2.7,0.9
			C26.9,24.9,26.1,25.4,25.4,26z"/>
		<path class="st0" d="M23.7,23.8l0.7,0.9c0.5-0.4,1.1-0.8,1.8-1.2c0,0,0-0.1,0-0.1c0-0.5,0.3-0.9,0.7-1.1c0.2-0.1,0.3-0.1,0.5-0.1
			c0.3,0,0.7,0.1,0.9,0.4c0.6-0.2,1.3-0.4,1.9-0.5c0-0.1-0.2-1.1-0.2-1.1c-1.1,0.2-2.2,0.6-3.3,1C25.6,22.5,24.6,23.1,23.7,23.8z"/>
		<path class="st0" d="M25,21c0,0,0-0.1,0-0.1c0-0.5,0.3-0.9,0.7-1.1c0.2-0.1,0.3-0.1,0.5-0.1c0.3,0,0.6,0.1,0.9,0.4
			c0.8-0.3,1.6-0.6,2.5-0.7c-0.1-0.5-0.2-0.7-0.2-0.9c0,0-0.1,0-0.2,0c-0.3,0-0.7,0.1-1.1,0.2l-0.2,0c-0.3,0.1-0.7,0.2-1.2,0.2
			c-0.6,0-1.1-0.2-1.4-0.6c-0.2-0.2-0.2-0.2-0.2-0.2c0,0-0.1,0-0.1,0c-0.1,0.1-0.1,0.1-0.1,0.2c0,0.1,0,0.1,0,0.2c0,0.1,0,0.2,0,0.3
			c0,1-0.9,1.7-1.4,2l-0.1,0.1c-0.7,0.5-0.9,0.8-1,0.9c0.1,0.1,0.2,0.4,0.5,0.7C23.4,21.9,24.2,21.4,25,21z"/>
		<path class="st0" d="M50,21.7c0.5,0.1,1.4,0.4,1.4,0.4c0.3-1.2,1.1-1.9,1.4-2.1c-0.3-0.3-0.9-1-1.4-1.8c-0.6,0.3-1.2,0.5-1.5,0.6
			c0.1,0.3,0.2,1,0.2,2C50.1,21.1,50,21.5,50,21.7z M51.2,18.8c0.3,0.4,0.6,0.8,0.9,1.1c0,0-0.6,0.4-1,1.5c-0.2-0.1-0.3-0.1-0.5-0.1
			c0-0.2,0-0.4,0-0.6c0-0.5-0.1-1.1-0.1-1.6C50.7,19,50.9,18.9,51.2,18.8z"/>
		<path class="st0" d="M38.2,20c0.3,0.2,1.1,0.9,1.4,2.1c0.3-0.1,0.9-0.2,1.4-0.4c0-0.2-0.1-0.5-0.1-1c0-1,0.1-1.7,0.2-2
			c-0.3-0.1-0.9-0.3-1.5-0.6C39.1,18.9,38.4,19.7,38.2,20z M40.5,19.1c-0.1,0.5-0.1,1.1-0.1,1.6c0,0.2,0,0.4,0,0.6
			c-0.2,0.1-0.3,0.1-0.5,0.1c-0.4-1.1-1-1.5-1-1.5c0.3-0.3,0.6-0.7,0.9-1.1C40,18.9,40.3,19,40.5,19.1z"/>
		<path class="st0" d="M38.9,25.6c1.9-0.3,3.2-0.9,3.7-1.2c-0.3-0.3-0.9-0.9-1.3-1.8c-0.2,0.1-0.7,0.2-1.6,0.4
			C39.7,24.3,39.3,25.1,38.9,25.6z M40.2,23.4c0.3-0.1,0.6-0.2,0.8-0.2c0.2,0.4,0.4,0.7,0.7,1c-0.5,0.2-1,0.4-1.9,0.6
			C40.1,24.4,40.2,23.9,40.2,23.4z"/>
		<path class="st0" d="M44.3,24.5c0.2,0.2,0.7,0.5,1.2,0.7c0.5-0.2,1-0.6,1.2-0.7c-0.3-0.2-0.8-0.7-1.2-1.4
			C45.1,23.8,44.5,24.3,44.3,24.5z M45.5,24c0.1,0.1,0.2,0.3,0.4,0.4c-0.1,0.1-0.3,0.2-0.4,0.2c-0.1-0.1-0.2-0.1-0.4-0.2
			C45.2,24.3,45.4,24.2,45.5,24z"/>
		<path class="st0" d="M39.2,16.9c0.2-0.3,0.7-1.3,0.7-2.1c0-0.4-0.3-1-0.8-1c-0.5,0-1,0.7-1,1.5C38.2,16.2,38.9,16.7,39.2,16.9z
			 M39.2,14.3c0.2,0,0.3,0.4,0.3,0.5c0,0.2-0.1,0.7-0.4,1.3c-0.3-0.3-0.4-0.6-0.4-0.8C38.7,14.8,39,14.3,39.2,14.3z"/>
		<path class="st0" d="M52,25.6c-0.3-0.4-0.8-1.3-0.8-2.5c-0.9-0.2-1.3-0.4-1.6-0.4c-0.4,0.9-1,1.5-1.3,1.8
			C48.8,24.7,50.1,25.2,52,25.6z M49.9,23.2c0.3,0.1,0.6,0.2,0.8,0.2c0,0.5,0.1,1,0.3,1.4c-0.8-0.2-1.4-0.4-1.9-0.6
			C49.5,23.9,49.7,23.6,49.9,23.2z"/>
		<path class="st0" d="M42.9,21.1c0.1,0,0.1,0,0.2-0.1c0,0,0,0,0-0.1c0-0.2,0.2-0.4,0.4-0.5c0,0,0.1,0,0.1,0c0.2,0,0.4,0.1,0.5,0.4
			c0.1,0.5-0.2,0.9-0.8,1.2l-1,0.3c0.3,0.5,0.7,1.1,1.2,1.5c0.9-0.7,1.4-1.5,1.4-2.4c0-1.3-1.4-1.9-2.9-2.4
			c-0.1,0.5-0.2,1.1-0.2,1.6c0,0.2,0,0.5,0.1,0.7L42.9,21.1z M44.5,21.4c0,0,0.1,0.8-0.9,1.8c-0.2-0.2-0.3-0.4-0.5-0.6
			C44.3,22.3,44.5,21.4,44.5,21.4z M42.4,19.7c0.6,0.2,1.2,0.4,1.2,0.4s-0.6-0.1-1,0.5c-0.1,0-0.1,0-0.2,0.1c0,0,0,0,0-0.1
			C42.4,20.4,42.4,20.1,42.4,19.7z"/>
		<path class="st0" d="M52.8,15.3c0-0.8-0.5-1.5-1-1.5c-0.5,0-0.8,0.6-0.8,1c0,0.8,0.5,1.7,0.7,2.1C52,16.7,52.8,16.2,52.8,15.3z
			 M51.8,14.3c0.2,0,0.5,0.5,0.5,1c0,0.2-0.1,0.5-0.4,0.8c-0.3-0.6-0.4-1-0.4-1.3C51.5,14.7,51.6,14.3,51.8,14.3z"/>
		<path class="st0" d="M47.5,23.9c0.5-0.5,1-1,1.2-1.5l-1-0.3c-0.6-0.2-0.9-0.7-0.8-1.2c0.1-0.2,0.3-0.4,0.5-0.4c0,0,0.1,0,0.1,0
			c0.2,0.1,0.4,0.3,0.4,0.5c0,0,0,0,0,0.1c0,0,0.1,0,0.1,0.1l1,0.3c0.1-0.2,0.1-0.5,0.1-0.7c0-0.6-0.1-1.1-0.2-1.6
			c-1.5,0.5-2.9,1.1-2.9,2.4C46,22.4,46.5,23.2,47.5,23.9z M48.5,19.7c0,0.3,0.1,0.6,0.1,0.9c0,0,0,0,0,0.1c-0.1,0-0.2-0.1-0.2-0.1
			c-0.4-0.6-1-0.5-1-0.5S47.9,19.9,48.5,19.7z M46.5,21.4c0,0,0.1,0.9,1.4,1.2c-0.1,0.2-0.3,0.4-0.5,0.6
			C46.4,22.3,46.5,21.4,46.5,21.4z"/>
		<polygon class="st0" points="64.3,25.1 64.5,23.6 66.1,23.3 64.6,22.6 64.8,21.1 63.7,22.2 62.3,21.5 62.3,21.5 63.1,22.9 62,24 
			63.6,23.7 		"/>
		<path class="st0" d="M59.4,22.7c-0.1,0.2-0.2,0.5-0.2,0.8c0,0.6,0.3,1.2,0.8,1.6c0,0,0.7,0.5,0.7,0.5c0.5,0.3,0.9,0.6,1.2,1
			l0.1,0.1l0.3,0c0.4,0,1,0.2,1.4,0.3l0.8,0.2c0.2,0,0.3,0.1,0.5,0.1c0.5,0,1-0.2,1.3-0.5c0.2-0.2,0.4-0.4,0.5-0.6
			c0.2-0.3,0.2-0.7,0.2-1.1l0-0.6c0-0.3,0-0.6,0.1-1c0-0.1,0-0.1,0-0.2l0,0l0.1-0.2c0.2-0.5,0.7-0.8,1.1-1l0.2-0.2l-0.1-0.8l-0.2,0
			c-0.4-0.1-0.8-0.2-0.9-0.3c-0.2-0.1-1.2-0.7-1.2-1.4c0,0,0-0.1,0-0.2c0-0.1,0-0.2,0-0.3c0-0.4-0.2-0.5-0.4-0.5
			c-0.1,0-0.2-0.1-0.3-0.1c-0.2,0-0.4,0.2-0.5,0.3c-0.2,0.2-0.5,0.4-0.9,0.4c-0.3,0-0.7-0.1-0.9-0.2c-0.1,0-0.5-0.2-0.9-0.5
			l-0.2-0.2L62,18.3c0,0-0.2,0.1-0.3,0.2l-0.2,0.1l0,0.2c0,0.2,0.1,0.5,0.1,0.8c0,0.3,0,0.5-0.1,0.7l-0.1,0.2c0,0.1-0.1,0.1-0.1,0.2
			c-0.3,0.4-0.6,0.7-1,0.9C59.9,22,59.6,22.2,59.4,22.7z M61.9,20.9c0.5-0.8,0.3-1.9,0.3-1.9l0,0c0.4,0.3,0.8,0.4,0.9,0.5
			c0.3,0.1,0.7,0.2,1.1,0.2c0.6,0,1-0.2,1.3-0.6c0.1-0.1,0.1-0.1,0.1-0.1c0,0.1,0,0.1,0,0.2c0,0.1,0,0.2,0,0.2c0,1.1,1.1,1.8,1.5,2
			c0.1,0.1,0.4,0.2,0.8,0.3l0,0c0,0-0.7,0.3-1.2,1.3c-0.6,1.1-0.1,2.5-0.4,3c-0.4,0.7-0.9,0.8-1.3,0.8c-0.1,0-0.3,0-0.4,0l-0.8-0.2
			c-0.5-0.1-1-0.3-1.6-0.3l0,0c-0.3-0.4-0.7-0.7-1.2-1c0,0-0.7-0.5-0.7-0.5c-0.4-0.3-0.9-1-0.5-1.7C60.4,22.2,61.2,21.9,61.9,20.9z"
			/>
		<path class="st0" d="M35.8,24.3c0.4,0,0.4-0.5,0.5-0.6c0.2-0.2,0.6-0.1,0.6-0.6c0-0.4-0.5-0.4-0.6-0.6c-0.2-0.2-0.1-0.6-0.5-0.6
			c-0.3,0-0.4,0.2-0.4,0.5v1.3C35.4,24.1,35.5,24.3,35.8,24.3z"/>
		<path class="st0" d="M21.4,29c-0.2-0.2-0.5-0.2-0.7,0c-0.3,0.3,0.1,0.6,0.2,0.8c0,0.2-0.3,0.6,0,0.8c0.3,0.3,0.6-0.1,0.8-0.1
			c0.2,0,0.6,0.3,0.8,0c0.2-0.2,0.1-0.5-0.1-0.7L21.4,29z"/>
		<path class="st0" d="M75.6,41.6c1-0.2,1.9-1.2,1.9-2.4c0-0.7-0.3-1.8-1.7-2.7c-0.2-0.1-0.4-0.2-0.6-0.3c1-0.4,1.6-1.1,1.6-2.1
			c0-0.7-0.5-1.2-1.2-1.2c-0.3,0-0.6,0.1-0.9,0.4c-0.2,0.2-0.3,0.5-0.3,0.7c-0.1,0.1-0.5,0.2-1.5,0.2c-0.4,0-0.8-0.1-1.2-0.2
			c0.2-0.1,0.9-0.7,1.2-0.9c0.3-0.2,1-0.4,1.3-1c0.8-1.4,1.1-2.1,1.4-3.4c0.2-0.6,0.2-1.2,0.2-1.8c0-0.5-0.1-0.9-0.1-1.2L75.7,25
			c0-0.4-0.1-1.6-1.1-1.9c0,0-1.7-2.6-1.8-2.7c-0.1-0.1-0.1-0.1-0.2,0c-0.1,0.1-0.7,0.9-0.7,0.9c-0.2,0-0.5,0-0.7,0.2
			c0-0.1-0.1-0.1-0.2-0.2c-0.1,0-0.1-0.1-0.2-0.1l-0.3-2l-0.2,0c0,0-1.1,0.2-1.1,0.2c0,0-0.3-0.1-0.6-0.2c-0.1,0-0.2-0.2-0.3-0.3
			c0-0.1,0-0.2,0-0.3c0-1-0.5-1.7-1.3-2.1c-0.6-0.3-1.6-0.5-2.7,0.5c-0.1,0-0.2,0-0.4-0.1c-0.3-0.1-0.4-0.3-0.5-0.3l-0.7-1.2l-1.6,1
			c-1-0.8-1.4-1.1-2-0.8c-0.2,0.1-0.4,0.2-0.6,0.5c0.1-0.1,0.1-0.3,0.1-0.4c0-0.6-0.5-1.2-1.1-1.2c-0.1,0-0.2-0.1-0.2-0.1
			c-0.1-0.3-0.5-1.3-0.6-1.3c0-0.1-0.2-0.1-0.3,0c-0.1,0.1-1.9,1.5-1.9,1.5c-0.2-1.2-1.1-2-2.1-2.2v-1.8h-0.9v0c0-2.5-1.7-4.3-4-4.3
			c-0.1,0-0.2,0-0.4,0V4.6h1.8V1.8H47V0h-2.9v1.8h-1.8v2.8h1.8v1.7c-0.2,0-0.4-0.1-0.6-0.1c-2.4,0-4,1.8-4,4.3h-1.1v1.8
			c-1.1,0.3-1.9,1.3-2,2.6l-0.8-0.7c0,0-1.6-1.3-1.6-1.3l-0.2-0.1l-3.3,3.9c-0.4-0.3-0.9-0.4-1.5-0.4c-1.1,0-2.2,0.4-2.4,0.4
			c-1.1-1.1-2.2-0.8-2.8-0.6c-0.6,0.3-1.4,0.9-1.4,2.1c0,0.1,0,0.2,0,0.3c-0.1,0.1-0.2,0.2-0.4,0.3c0,0-0.2,0.1-0.2,0.1
			c-1.2,0.9-1.8,1.7-1.9,2.5h-5.2l0,4.8h3.6c-0.2,0.2-1.6,1.3-1.6,3.5c0,2.6,2.1,3.9,2.4,4C18.8,34,18.4,34,18,34
			c-1,0-1.4-0.1-1.5-0.2c-0.1-0.6-0.6-1.1-1.2-1.1c-0.7,0-1.2,0.6-1.2,1.2c0,1.5,1.2,2,1.6,2.1c-0.2,0.1-2.3,1-2.3,3
			c0,1.3,0.9,2.2,1.9,2.4c-4.2,6-6.6,13.3-6.6,21.1C8.9,83,25.4,99.3,45.7,99.2c20.2-0.1,36.6-16.7,36.5-36.9
			C82.1,54.6,79.7,47.5,75.6,41.6z M73.4,30.2c-0.1,1-0.6,1.9-1.4,2.6c-0.7,0.5-1.4,0.9-2.2,0.9c0.8,0.5,1.9,1,3.2,1
			c2,0,2.2-0.4,2.2-0.8c0-0.1,0.1-0.3,0.1-0.3c0.1-0.1,0.2-0.1,0.3-0.1c0.3,0,0.5,0.2,0.5,0.5c0,1.7-2.2,1.7-3.2,1.7l-0.4,0
			c0.2,0.1,0.6,0.3,0.6,0.3c1.4,0.6,1.4,0.6,1.4,0.6c0.3,0.1,0.6,0.2,0.9,0.4c0.9,0.6,1.4,1.3,1.4,2.1c0,0.9-0.6,1.8-1.6,1.8
			c-0.9,0-1.5-0.7-1.5-1.6c0-0.3,0.2-0.5,0.5-0.5c0.3,0,0.5,0.2,0.5,0.5c0,0.5,0.3,0.6,0.5,0.6c0.3,0,0.6-0.3,0.6-0.8
			c0-0.5-0.3-0.9-0.9-1.2c-0.3-0.2-0.4-0.2-0.8-0.4l-1.5-0.6c0,0-1.5-0.8-1.7-0.9h0l0,0c-1-0.6-1.9-1.3-2.8-2.1l-0.4-0.3l0.1-0.1
			c0,0,0.6,0.2,0.8,0c0.2-0.2,0.1-0.8,0.1-0.8l0.2,0c0,0,0.1,0,0.1,0c0.1,0,0.1,0,0.2,0c0.9,0,1.7-0.5,2-0.7c0.6-0.5,1-1.2,1.1-2
			c0-0.1,0-0.2,0-0.3c0-0.8-0.3-1.4-0.6-1.7c-0.1-0.1-0.2-0.3-0.2-0.5c0-0.1,0-0.2,0.1-0.3c0.1-0.1,0.2-0.1,0.3-0.1
			c0.2,0,0.3,0.1,0.5,0.3c0.5,0.6,0.8,1.4,0.8,2.3C73.4,29.9,73.4,30,73.4,30.2z M73.4,38.7c-0.5-0.6-0.7-0.8-1.2-1.4l1.6,0.7
			c0.3,0.1,0.4,0.2,0.4,0.2C73.6,38.3,73.4,38.6,73.4,38.7z M54.9,15.1l0.5,0.1l-0.1-0.4l0.4,0.2l0-0.5l0.3,0.3l0.1-0.5l0.3,0.7
			c0.2,0,0.4,0.1,0.6,0.3c0.1,0,0.5,0,0.6,0.3c0.1,0.4-0.7,0.5-0.7,0.6c0,0.1,0.2,0.2,0.4,0.3c0.3,0.2,0.9,0.8,1,1
			c0.1-0.1,0.3-0.4,0.4-0.5c0.1-0.1,0.5-0.6,0.6-0.6c0.3-0.1,0.6,0.3,0.8,0.5c0.4,0.2,0.6,0.6,0.7,0.7l1.4-0.9c0,0,0.5,1.2,1.9,1.2
			c0.2,0,0.4,0,0.5-0.1c0.5-0.6,1.1-0.8,1.8-0.5c0.7,0.3,0.9,0.9,0.8,1.7c-0.1,0.4,0.6,0.9,0.8,1c0.4,0.2,0.8,0.3,1.1,0.3l0.4-0.1
			l0.3,2.2c-1.7,0.9-1.8,0.9-1.8,2.7c0,0.6,0,1.2-0.3,1.8c-0.2,0.3-0.4,0.6-0.7,0.9c0,0-0.1,0-0.1,0.1c0,0.1,0,0.1,0,0.2l0.5,0.8
			c0.1-0.1,0.9-0.7,1-0.9c0.1-0.1,0-1.1,0-1.1s0.2-0.4,0.2-1.8c0-1.2,0.1-1.5,0.5-1.8c0.2-0.2,0.7-0.5,1-0.6c-0.1,0.5-0.8,0.7-0.8,1
			c0,0.2,0.1,0.4,0.2,0.4l0.1-0.1c0.2-0.1,0.4-0.1,0.4-0.1c0.2-0.2,0.5-0.4,0.7-0.4c0.3,0,0.6,0.1,0.7,0.2l0.1-0.2
			c-0.1-0.1-0.2-0.3-0.2-0.5c0-0.2-0.2-0.4-0.5-0.3l0.1-0.2c0.1-0.2,0.4-0.2,0.5-0.2c0.2,0,0.3-0.1,0.5,0l0.4-0.5l0.1,0.4l0.3,0
			l0,0.3l0.3,0l-0.1,0.3l0.3,0.2l-0.6,0.2c0,0.3-0.1,0.7-0.5,1.1c0,0,0,0.1,0.1,0.2c0,0.5-0.5,0.7-0.6,0.8l-0.1,0.5
			c0.1,0.1,0.3,0.2,0.4,0.2c1.2-0.1,1.1-1.9,1.8-1.9c0.7,0,0.8,0.7,0.8,1.2c0.1,0.9,0.4,1.5,0,3.2c-0.2,1-0.5,1.7-1,2.6
			c0.1-0.2,0.1-0.5,0.1-0.8l0-0.4c0-1-0.3-2-0.9-2.7c-0.3-0.4-0.7-0.5-0.9-0.5c-0.3,0-0.5,0.1-0.7,0.3c-0.2,0.2-0.2,0.4-0.2,0.6
			c0,0.3,0.1,0.6,0.3,0.8c0.2,0.2,0.4,0.8,0.4,1.4l0,0.2c-0.1,0.6-0.3,1.1-0.8,1.5c0,0,0-0.1,0-0.1c0.1-0.3,0.2-0.6,0.3-0.9
			c0,0,0.1-0.4,0.1-0.6c0-0.2,0.2-0.6,0.2-0.8c-0.2,0.1-0.7,0.7-1.1,0.7c-0.1,0-0.2,0-0.2,0c0,0.2,0,0.6,0,0.8
			c0,0.1-0.3,1.5-0.3,1.5c0,0,0,0,0,0l-0.5,0.1c0,0,0,0,0,0c0,0-0.3-0.3-0.4-0.3l0.2-1.3l-0.4,0.9c0,0-0.1-0.2-0.2-0.4
			C68.8,31,68.7,31,68.6,31l-0.7,1.2c0.1,0.1,0.4,0.4,0.4,0.8l-0.2,0.1c0-0.1-0.3-0.4-0.5-0.4c-0.2,0-0.5,0.3-0.5,0.4L67,33
			c0,0,0.1-0.2,0.2-0.4c-0.1,0-0.2,0-0.3,0c-0.2,0-0.5,0.2-0.6,0.2l0-0.1c0,0,0.3-0.3,0.6-0.3c0-0.1-0.1-0.1-0.2-0.1
			c-0.1,0-0.3,0-0.3,0l0-0.1c0,0,0.2-0.1,0.3-0.1c0.3,0,0.5,0.2,0.8,0.2l0.7-1.3c0-0.5,0.2-0.6,0.2-1c0-0.1,0-0.3,0-0.3
			c-0.1,0-0.8,0.3-0.9,0.3c-0.2,0-0.1-0.5-0.1-0.6l-0.4-0.7c-0.3,0.1-0.6,0.1-0.9,0.1L66,28.5c0,0,0,0,0,0c-0.5,0.1-1,0.1-1.5,0l0,0
			l-1.1-0.3c-0.3-0.1-0.6-0.2-0.8-0.2c-0.3,0.1-0.8,0.5-0.9,0.6c-0.1,0.1-0.3,0.1-0.4,0.1c-0.1-0.1-0.2-0.2-0.2-0.4
			c0-0.1,0.1-0.6-0.1-1c-0.2-0.2-0.4-0.4-0.7-0.5L59.3,26l-0.1,0c-0.5-0.4-0.8-0.9-1-1.4l-0.1,0l-0.2-0.2l-0.6-0.1
			c0,0-0.6-0.7-1-0.8l-0.2-0.2c0,0,0-0.3,0-0.5c-0.1-0.2-0.2-0.3-0.3-0.3c-0.1,0.1-0.4,0.5-0.6,0.8C55,23.6,54.6,24,54.5,24
			c0.1,0.5,0.2,0.9,0.2,1.4c0,0,0.1,0.1,0.2,0.3c0.1,0.1,0.4,0.5,0.5,0.6c0,0.1,0,0.2-0.1,0.2c-0.2,0.1-0.4-0.1-0.5-0.1l-0.1-0.1
			l-0.1-0.3l-0.3-0.3c-0.1-0.4-0.1-0.8-0.2-1.2c-0.1-0.3-0.2-0.5-0.2-0.5l0-0.2c0.2-0.3,0.6-0.9,0.5-1.2c0-0.1-0.2-0.2-0.3-0.3
			c-0.1-0.1-0.2-0.2-0.3-0.4C53.5,22,53.2,22,53,21.7c0-0.1,0-0.2,0-0.3c0.1-0.2,0.3-0.2,0.2,0c0,0,0,0.1,0,0.1c0,0.1,0.2,0.1,0.4,0
			c0-0.3,0.1-0.6,0.2-0.8c0.2-0.4,0.7-0.7,0.7-0.7c0,0,0.2-0.3,0.5-0.6c0.2-0.1,0.3-0.3,0.5-0.4c0.6-0.5,1-1,1-1.1l-0.1-0.5
			c-0.3-0.3-0.7-0.6-0.8-1c0-0.1,0-0.1,0-0.2c-0.2,0-1-0.2-1.1-0.5l0.7-0.1L54.9,15.1z M64.3,29.5c-0.4-0.6,0.6-0.8,0.8-0.6
			c0.5,0.7,1.1,1.5,1.8,2.2l0.2,0.3h-0.3c-0.2,0-0.5,0.1-0.6,0.2l-0.1,0.1l-0.1-0.1C65.3,30.8,64.7,30.1,64.3,29.5z M65.3,31.6
			c-1.4-0.9-2.8-1.7-4.2-2.4c0.4,0.1,0.8-0.1,1.1-0.3c0.2-0.2,0.3-0.3,0.4-0.3c0.1,0,0.3,0.1,0.4,0.1c0.2,0.3,0.6,0.7,0.9,1.1
			C64.3,30.4,64.8,31,65.3,31.6z M65.9,29.2c0.2,0,0.4,0,0.6,0c0,0.1,0.1,0.1,0.1,0.2c0,0.2,0,0.6,0.3,0.8l0.6,0.2
			c0,0-0.1,0.2-0.2,0.3C66.8,30.3,66.3,29.7,65.9,29.2z M55.8,26.7c0-0.1,0.1-0.2,0.1-0.3c0-0.1,0-0.2,0-0.3l0,0l0,0V26
			c0,0,2,0,2.6,0c0.6,0,0.7,0.9,0.2,0.9l-2.9,0.1L55.8,26.7z M55.5,25.4c0,0-0.1-0.2-0.2-0.2c0-0.3-0.1-0.6-0.1-0.9c0,0,0-0.1,0-0.3
			c0.2-0.2,0.4-0.5,0.4-0.5l0,0.3c0,0.1,0.2,0.3,0.2,0.3s0.1,0,0.2,0c0,0,0.1,0.1,0.2,0.1l0.7,0.6c0,0,0.4,0.1,0.6,0.1c0,0,0,0,0,0
			c0.1,0.1,0.2,0.3,0.2,0.4C57.2,25.4,56.4,25.5,55.5,25.4z M58.5,27.4c0.5,0,1.1,0,1.4,0c0.1,0.1,0.3,0.2,0.4,0.3
			c0,0.1,0,0.4,0,0.7c0,0.3,0.2,0.7,0.5,0.9c-1.5-0.7-3-1.3-4.5-1.7C57.2,27.4,57.9,27.4,58.5,27.4z M53.4,24.8
			c-0.6-0.6-0.7-1.4-0.7-1.7c0,0,0,0,0,0c0-0.2,0-0.5,0.1-0.7c0.2,0.1,0.4,0.2,0.6,0.2c0.1,0.1,0.2,0.2,0.2,0.2
			c-0.1,0.3-0.5,0.7-0.5,0.7L53,24.1C53,24.1,53.3,24.5,53.4,24.8z M55.2,16.7c0.2,0.4,0.4,0.7,0.7,1c0,0,0,0,0,0
			c-0.1,0.2-0.7,0.7-1.1,1c-0.4,0-0.8,0.1-1,0.2c-0.2-0.3-0.5-0.6-0.8-1.1c1.1-0.8,1.3-1.7,1.3-1.7S54.6,16.6,55.2,16.7z M43.6,7.1
			c0.6,0,1,0.1,1.4,0.3V3.7h-1.8V2.6H45V0.8h1.2v1.8H48v1.1h-1.8v3.5c0.3-0.1,0.7-0.2,1.2-0.2c1.8,0,3.1,1.4,3.1,3.4c0,0,0,0,0,0
			h-1.2c0-1.1-0.7-2.3-2.1-2.3c-0.8,0-1.4,0.6-1.7,1c-0.3-0.5-0.8-1-1.7-1c-1.5,0-2.1,1.2-2.1,2.3h-1.2c0,0,0,0,0,0
			C40.5,8.4,41.7,7.1,43.6,7.1z M39.2,11.2h12.5v1H39.2V11.2z M45.5,16.8c-1.4,0-3.3-1.9-4.4-4h1.3c0.8,1.5,2.1,2.9,3.1,2.9
			c1,0,2.3-1.3,3.1-2.9h1.3C48.8,14.9,46.9,16.8,45.5,16.8z M50.2,17.1c-0.1,0-0.2,0.1-0.2,0.1c-0.2-0.5-0.5-1-0.8-1.5
			c0.1-0.2,0.3-0.3,0.4-0.5C49.6,15.7,49.8,16.3,50.2,17.1z M47.6,17c0.2,0.3,0.3,0.5,0.4,0.8c-0.9,0.3-1.9,0.8-2.6,1.5
			c-0.7-0.7-1.6-1.1-2.6-1.5c0.1-0.3,0.3-0.6,0.4-0.8c0.7,0.5,1.5,0.8,2.2,0.8C46.2,17.8,46.9,17.5,47.6,17z M41.8,15.6
			c-0.3,0.5-0.6,1-0.8,1.6c-0.1,0-0.2-0.1-0.2-0.1c0.4-0.7,0.6-1.4,0.6-2C41.5,15.2,41.7,15.4,41.8,15.6z M39.2,12.9
			c1,0,1.8,1,1.8,2c0,1-0.6,2.1-0.8,2.5c0.4,0.2,0.8,0.3,1.2,0.5c0.1-0.4,0.5-1.2,1-2.1l0.1-0.2l0.1,0.1c0.2,0.2,0.3,0.3,0.5,0.5
			l0.1,0.1l-0.1,0.1c-0.5,0.8-0.8,1.5-0.8,1.7c1.2,0.4,2.6,1,3.2,1.9c0.7-1,2-1.5,3.2-1.9c-0.2-0.5-0.5-1.2-0.8-1.7l-0.1-0.1
			l0.1-0.1c0.2-0.1,0.3-0.3,0.5-0.5l0.1-0.1l0.1,0.2c0.6,0.9,0.9,1.7,1,2c0.5-0.1,1-0.4,1.2-0.5c-0.2-0.4-0.8-1.5-0.8-2.5
			c0-0.9,0.8-2,1.8-2c1.1,0,2,1.1,2,2.4c0,1-0.5,1.8-1.5,2.4c0.6,0.9,1.2,1.5,1.4,1.8c0.1,0,1-0.3,1-0.3l-0.6,0.5
			c-0.7,0.5-0.8,1-0.8,1h-0.1c-0.4,0-0.7,0.4-0.7,0.8c0,0,0,0.1,0,0.1l0,0.1l0,0.1c-0.2,0.4-0.3,0.9-0.3,1.4c0,0.2,0,1.8,1.4,2.5
			l0.1,0l0.1,0.4c0.1,0.1,0.3,0.3,0.3,0.3l0.2,0.4l0.2,0.2l-0.4,0c-4.1-0.3-6.1-1.4-6.5-1.7c-0.4,0.3-1.7,1.1-2.1,1.1
			c-0.4,0-1.7-0.9-2.1-1.1c-0.6,0.3-3.6,1.8-8.3,1.8c-0.8,0-1.7,0-2.4,0c-0.2,0-0.3-0.9,0-0.9c0.3,0,1.9,0,2.7,0l0.2,0
			c2.2,0,3-1.5,3-2.8c0-0.8-0.3-1.6-0.8-2.1c-0.6-0.6-1.4-0.8-1.9-0.8c-1.9,0-2.9,1.2-2.9,1.2c-0.1,0.1-0.2,0.2-0.4,0.2
			c-0.1,0-0.2,0-0.3-0.1c-0.1-0.1-0.2-0.2-0.2-0.3c0-0.1,0-0.3,0.1-0.4c0.1-0.1,1.3-1.6,3.7-1.6c0.6,0,1.1,0.2,1.3,0.3
			c0.6-0.7,1.2-1.4,1.4-1.8c-0.4-0.2-1.5-1-1.5-2.4C37.2,14,38.1,12.9,39.2,12.9z M29.9,28.3c0,0.1-0.1,0.3-0.2,0.4
			c-0.1,0.1-0.3,0-0.4-0.1c0,0-0.5-0.5-1-0.6c0.4-0.3,1.2-0.7,1.8-0.8C29.8,27.6,29.9,28.3,29.9,28.3z M29.9,29.2
			c-1.5,0.7-2.9,1.5-4.3,2.4c0.6-0.7,1-1.3,1.4-1.7c0.3-0.4,0.9-1.1,1-1.2c0.3-0.1,0.7,0.3,0.8,0.4C29.1,29.3,29.6,29.4,29.9,29.2z
			 M30.6,28.3c0,0,0-0.2,0-0.3c0-0.2,0-0.5,0.2-0.6c0.2,0,1.1,0,1.6,0c0.6,0,1.4,0,2.2,0c-1.6,0.5-3.1,1.1-4.5,1.8
			C30.4,29,30.6,28.7,30.6,28.3z M31.9,22.5L31.9,22.5l2.4-0.1c0-0.1,0-0.1,0-0.1c0-0.8,0.7-1.5,1.5-1.5c0.9,0,1.3,0.8,1.4,1
			c0.2,0.1,1,0.4,1,1.4c0,1-0.8,1.3-1,1.4c-0.1,0.2-0.4,1-1.4,1c-0.9,0-1.5-0.8-1.5-1.5c0,0,0-0.1,0-0.1h-1.9l0,0c0,0,0-0.1-0.1-0.1
			C31.9,23.3,31.8,22.9,31.9,22.5z M31.8,20.7l-0.2-0.9c0.6-0.7,1-1.2,1.3-1.5c0,0,0.6,0.5,1,0.8C32.7,19.6,31.9,20.4,31.8,20.7z
			 M34.3,25.4c-0.6,0-1.1,0-1.5,0c0-0.3-0.1-0.4-0.1-0.8c0.6,0,1,0,1.2,0C33.9,24.8,34,25.2,34.3,25.4
			C34.3,25.4,34.3,25.4,34.3,25.4z M36.8,16.3c0,0,0.4,1,1.2,1.5c-0.3,0.4-0.6,0.8-0.8,1.1c-0.4-0.1-0.7-0.2-1.1-0.2
			c-0.5,0-1,0.1-1.4,0.2L36.8,16.3z M34,14l1,0.8l-0.2,0.3l0.6,0.5l0.2-0.3l0.7,0.6l-1,1.2l-0.7-0.6l0.2-0.3l-0.6-0.5l-0.7,0.9
			l0.6,0.5l0.2-0.3l0.7,0.6l-1,1.1l-0.7-0.6l0.2-0.3L33,17.1l-1.7,2c0,0,0,0,0-0.1c-0.4-0.3-0.6-0.6-0.5-1.3L34,14z M22.5,19.8
			l0.2-0.1c0.3-0.2,0.9-0.6,0.8-1c-0.1-0.5-0.1-1.3,0.8-1.7c0.9-0.4,1.5,0.1,1.9,0.5c0.1,0.1,0.3,0.2,0.4,0.2c0.6,0,1.4-0.4,2.5-0.4
			c0.7,0,1.1,0.2,1.3,0.6c0.9,2.5,1.8,8.2,1.8,8.2c0,0-1.6,0.1-3.3,0.9c-1.4,0.7-2.8,2-2.8,2c0,0-3.8-4.4-5.2-6.7
			C20.6,21.6,21.2,20.7,22.5,19.8z M24,29.1c0.1-0.1,0.4-0.4,0.7-0.9c0.3,0.3,0.4,0.4,0.5,0.6c-0.3,0.4-0.6,0.8-1,1.2c0,0,0,0,0,0
			C24.3,29.7,24.1,29.3,24,29.1z M23.2,29.1c0.3,0.3,0.5,0.6,0.5,1c0,1-0.7,1.6-1.3,1.6c-0.2,0-0.5-0.1-0.6-0.1
			c-0.1,0.1-0.4,0.2-0.7,0.2c-0.8,0-1.5-0.7-1.5-1.4c0-0.2,0.1-0.4,0.1-0.5c0-0.1-0.2-0.4-0.2-0.6c0-0.4,0.1-0.8,0.3-1.1
			c0.3-0.3,0.6-0.5,1-0.5c0,0,0.1,0,0.1,0c0.3,0,0.7,0.1,0.9,0.3c0,0,0.1,0.1,0.1,0.1l1.4-1.7c0,0,0.4,0.1,0.7,0.4
			c0.2,0.3,0.3,0.7,0.3,0.7l-1.3,1.5C23.1,29.1,23.2,29.1,23.2,29.1z M22.4,25.3c-0.1-0.1-0.3-0.1-0.4-0.1c-0.1,0-1,0-2.1,0.6
			c0-0.5,0-1.3,0-1.3c0.3,0,1,0,2,0C21.8,24.5,22.1,24.9,22.4,25.3z M17.6,25.5v-0.9H18v-0.8h-1.1v0.8h0.4v0.9h-1.5v-0.9h0.4l0-0.8
			h-0.4v-1.3h4.9c0.7,0.4,0.7,0.7,0.8,1.3h-2.7v0.8h0.4v0.9L17.6,25.5z M14.1,39.1c0-0.8,0.5-1.5,1.4-2.1c0.3-0.2,0.6-0.3,0.9-0.4
			l1.4-0.6l0.6-0.3l-0.3,0c-2.2,0-3.2-0.5-3.2-1.7c0-0.2,0.2-0.5,0.5-0.5c0.3,0,0.5,0.2,0.5,0.5c0,0.2,0,0.3,0.1,0.3
			c0.4,0.4,1.7,0.4,2.1,0.4c1.2,0,2.4-0.5,3.2-1c-0.8-0.1-1.5-0.4-2.2-0.9c-0.8-0.7-1.3-1.6-1.4-2.6c-0.1-1,0.2-2,0.8-2.7
			c1.5-1.8,3.5-1.8,3.6-1.8c0.3,0,0.5,0.2,0.5,0.5c0,0.3-0.2,0.5-0.5,0.5c0,0-1.6,0-2.8,1.4c-0.3,0.4-0.6,1.1-0.6,2
			c0.1,0.8,0.4,1.4,1.1,2c0.2,0.2,0.9,0.7,1.9,0.7c0.8,0,1.5-0.4,2.1-1.1l0.1-0.1c0.7-0.8,1.7-2,2-2.3c0.2-0.3,1,0.2,0.7,0.6
			c-0.8,1-1.7,2.2-3.2,3.6c-0.2,0.2-0.2,0.2-0.2,0.2c-1,0.9-2,1.7-3,2.4c-1.3,0.7-1.7,0.9-1.8,0.9l0,0l-1.4,0.6
			c-0.3,0.1-0.5,0.2-0.8,0.4c-0.7,0.4-1,0.8-0.9,1.3c0,0.4,0.3,0.7,0.6,0.7c0.5,0,0.5-0.4,0.5-0.6c0-0.1,0.1-0.3,0.1-0.3
			c0.1-0.1,0.2-0.1,0.3-0.1c0.3,0,0.5,0.2,0.5,0.5c0,1.1-0.8,1.6-1.6,1.6C14.9,40.9,14.1,40.1,14.1,39.1z M19.1,30
			C19.1,30.1,19.1,30.1,19.1,30C19.1,30.1,19.1,30.1,19.1,30L19.1,30z M18.6,37.5c-0.5,0.6-0.5,0.6-1,1.2c0-0.1-0.1-0.1-0.1-0.2
			c-0.2-0.2-0.4-0.3-0.6-0.3c-0.1,0,0.1-0.1,0.3-0.2C17.4,37.9,18.6,37.5,18.6,37.5z M45.7,98.3c-19.8,0.1-35.9-15.9-36-35.6
			c0-7.9,2.5-15.2,6.8-21.2c0.3-0.1,0.5-0.2,0.7-0.4c0.3-0.3,0.6-0.7,0.7-1.4c6.5-7.9,16.4-13,27.4-13c11.2-0.1,21.2,5,27.8,13
			c0.2,1.3,1.1,1.7,1.4,1.8c4.2,5.8,6.8,13,6.8,20.8C81.4,82,65.4,98.2,45.7,98.3z"/>
		<path class="st0" d="M72.7,62.5c0-15-12.2-27.1-27.1-27.1c-15,0-27.1,12.2-27.1,27.1c0,15,12.2,27.1,27.1,27.1
			C60.5,89.7,72.7,77.5,72.7,62.5z M45.1,88.8C31,88.5,19.5,77,19.3,62.9h25.8V88.8z M45.1,62H19.3C19.6,47.9,31,36.5,45.1,36.3V62z
			 M46,36.3C60.1,36.5,71.5,47.9,71.8,62H46V36.3z M46,88.8V62.9h25.8C71.6,77,60.1,88.5,46,88.8z"/>
		<path class="st0" d="M23.9,82.2c-0.1-0.1-0.3-0.4-0.6-0.7c-0.1-0.1-0.1-0.1-0.2,0c0,0,0,0.1,0,0.1c0.3,0.4,0.3,0.4-0.4,1l-2.2,1.9
			c-0.1,0.1-0.1,0.1-0.2-0.1C20,84,20,83.5,20.5,83c0.4-0.4,1-0.3,1.2,0c0.1,0.1,0.2,0.1,0.2,0.1c0.1-0.1,0-0.2-0.1-0.2
			c-0.6-0.6-1.4-0.7-2.1-0.2c-0.5,0.5-0.4,1.2,0.1,1.8c0.2,0.2,0.4,0.5,0.6,0.6c0.1,0.1,0.3,0.4,0.5,0.6c0.1,0.1,0.1,0.1,0.2,0.1
			c0,0,0-0.1,0-0.2c-0.2-0.3-0.3-0.4,0-0.7l2.1-1.9c0.6-0.5,0.7-0.5,0.9-0.2c0,0.1,0.1,0.1,0.1,0c0,0,0-0.1,0-0.2
			C24.2,82.6,24,82.3,23.9,82.2z"/>
		<path class="st0" d="M20.6,77.7c-0.8-1.3-2.2-1.6-3.3-0.8c-1.1,0.7-1.4,1.9-0.6,3.2c0.9,1.5,2.4,1.4,3.2,0.9
			C20.8,80.4,21.5,79.1,20.6,77.7z M17,80c-0.5-0.8-0.2-1.9,0.9-2.5c1.4-0.9,2.1-0.2,2.3,0.2c0.6,0.9,0.1,2-0.9,2.6
			C18.1,81,17.3,80.6,17,80z"/>
		<path class="st0" d="M18.6,74.7c0,0.1,0.1,0.1,0.1,0.1c0.1,0,0.1-0.1,0-0.2c-0.1-0.3-0.2-0.5-0.2-0.6c0-0.1-0.1-0.3-0.2-0.7
			c0-0.1-0.1-0.1-0.1-0.1c0,0,0,0.1,0,0.1c0.1,0.3,0.1,0.5-0.4,0.7l-2.2,0.8l1.9-4c0-0.1,0.1-0.2,0.1-0.2c0-0.1-0.1-0.1-0.2,0
			l-3.5,1.2c-0.3,0.1-0.5,0.1-0.6-0.2c0-0.1-0.1-0.1-0.1-0.1c-0.1,0-0.1,0.1,0,0.2c0.1,0.3,0.2,0.5,0.2,0.5c0,0.1,0.1,0.4,0.2,0.7
			c0,0.1,0.1,0.2,0.1,0.1c0.1,0,0.1-0.1,0-0.1c-0.1-0.4-0.1-0.5,0.3-0.6l2.4-0.9l-2,3.9c0,0.1-0.1,0.2-0.1,0.3c0,0.1,0.1,0.1,0.2,0
			l3.4-1.2C18.5,74.3,18.5,74.4,18.6,74.7z"/>
		<path class="st0" d="M13.4,70.2c0.1,0,0.1,0,0.1-0.1c0-0.1-0.1-0.1-0.1-0.1c-0.2,0-0.4-0.1-0.5-0.6l-0.2-0.8l2.9-0.5
			c0.9-0.2,1-0.1,1,0.2c0,0.1,0,0.1,0.1,0.1c0.1,0,0.1-0.1,0.1-0.2c0-0.2-0.1-0.6-0.1-0.7c0-0.2-0.1-0.5-0.1-0.9
			c0-0.1-0.1-0.1-0.1-0.1c-0.1,0-0.1,0.1-0.1,0.1c0.1,0.5,0,0.5-0.9,0.7l-2.8,0.5l-0.1-0.7c-0.1-0.5,0-0.7,0.2-0.7
			c0.1,0,0.1-0.1,0.1-0.1c0,0-0.1-0.1-0.1-0.1c-0.1,0-0.5,0.1-0.7,0.1c-0.1,0-0.2,0-0.1,0.1c0,0,0.1,0.2,0.2,0.5l0.5,2.6
			c0,0.3,0,0.5,0,0.5c0,0.1,0,0.1,0.1,0.1C12.8,70.2,13.2,70.2,13.4,70.2z"/>
		<path class="st0" d="M12.1,65c0-0.3,0.1-0.4,0.3-0.4c0.2,0,0.3,0,1.2-0.1l1-0.1c0.6,0,1,0,1.3,0c0.3,0,0.3,0.1,0.3,0.3
			c0,0.1,0,0.1,0.1,0.1c0.1,0,0.1-0.1,0.1-0.2c0-0.2-0.1-0.6-0.1-0.7c0-0.2,0-0.5,0-0.9c0-0.1,0-0.1-0.1-0.1c-0.1,0-0.1,0.1-0.1,0.1
			c0,0.3,0,0.5-0.2,0.5c-0.2,0-0.7,0.1-1.3,0.1l-1,0c-0.9,0-1,0.1-1.2,0.1c-0.3,0-0.3-0.1-0.3-0.4c0-0.1,0-0.1-0.1-0.1
			c0,0-0.1,0.1-0.1,0.2c0,0.2,0,0.6,0.1,0.7c0,0.2,0,0.5,0,0.8c0,0.1,0,0.2,0.1,0.2C12.1,65.1,12.1,65.1,12.1,65z"/>
		<path class="st0" d="M11.9,61.6c0,0,0.1,0,0.1-0.1c0-0.4,0.1-0.5,0.7-0.4l2.6,0.2c0.8,0.1,0.8,0.1,0.8,0.4c0,0.1,0,0.1,0.1,0.1
			c0.1,0,0.1,0,0.1-0.1c0-0.2,0-0.6,0-0.7c0-0.2,0.1-0.5,0.1-0.9c0-0.1,0-0.2-0.1-0.2c-0.1,0-0.1,0-0.1,0.1c0,0.4,0,0.5-0.9,0.5
			l-0.9-0.1c0,0,0,0,0,0c0-0.1,0-0.7,0.1-0.8c0-0.2,0.2-0.3,0.4-0.3c0.1,0,0.1,0,0.1-0.1c0-0.1-0.1-0.1-0.1-0.1
			c-0.4,0-0.7-0.1-0.8-0.1c0,0-0.1,0-0.1,0.1c0,0.1,0.2,0.1,0.1,0.4l-0.1,1c0,0,0,0,0,0l-1.7-0.1c0,0,0,0,0,0l0.1-0.9
			c0-0.2,0.1-0.3,0.2-0.3c0.1,0,0.1,0,0.2,0c0.1,0,0.1,0,0.1-0.1c0-0.1,0-0.1-0.1-0.1c-0.1,0-0.4-0.1-0.5-0.1c-0.1,0-0.1,0-0.2-0.1
			c0,0,0,0,0,0c0,0-0.1,0-0.1,0.1c0,0,0,0,0,0.1l0,0c0,0.1,0,0.2,0,0.3c0,0.1-0.1,1.3-0.1,1.5c0,0.2-0.1,0.5-0.1,0.8
			C11.8,61.5,11.9,61.6,11.9,61.6z"/>
		<path class="st0" d="M12.4,57.1c0.1-0.3,0.2-0.3,0.4-0.3c0.2,0,0.3,0.1,1.2,0.2l1,0.2c0.6,0.1,1,0.2,1.2,0.3
			c0.2,0.1,0.3,0.2,0.2,0.4c0,0.1,0,0.1,0,0.1c0.1,0,0.1,0,0.1-0.1c0-0.2,0.1-0.6,0.1-0.7c0-0.2,0.1-0.5,0.2-0.9
			c0-0.1,0-0.2-0.1-0.2c-0.1,0-0.1,0-0.1,0.1c-0.1,0.3-0.1,0.5-0.4,0.4c-0.2,0-0.7-0.1-1.3-0.2l-1-0.2C13.3,56,13.1,56,13,56
			c-0.2-0.1-0.3-0.2-0.2-0.4c0-0.1,0-0.1-0.1-0.1c0,0-0.1,0-0.1,0.1c0,0.2-0.1,0.6-0.1,0.7c0,0.2-0.1,0.5-0.2,0.7c0,0.1,0,0.2,0,0.2
			C12.4,57.2,12.4,57.1,12.4,57.1z"/>
		<path class="st0" d="M15,54.2c1.6,0.6,2.7-0.5,3.2-1.8c0.1-0.4,0.2-0.8,0.2-1.1c0-0.1,0-0.2-0.1-0.2c-0.2-0.1-0.6-0.4-0.7-0.4
			c-0.1,0-0.1,0-0.1,0c0,0.1,0,0.1,0.1,0.1c0.4,0.3,0.5,0.6,0.2,1.4c-0.3,1-1.2,1.5-2.5,1.1c-1-0.4-1.6-1.1-1.2-2.1
			c0.2-0.7,0.7-1.2,1.3-1c0.1,0,0.2,0,0.2,0c0-0.1,0-0.1-0.1-0.1c-0.1-0.1-0.4-0.2-0.6-0.2c-0.2-0.1-0.2-0.1-0.3-0.1
			c-0.1,0-0.1,0-0.1,0.1c-0.1,0.3-0.4,0.7-0.6,1.3C13.3,52.4,13.6,53.8,15,54.2z"/>
		<path class="st0" d="M15.3,48.1c0.1-0.3,0.2-0.3,0.5-0.2c0.2,0.1,0.3,0.2,1.1,0.5l0.9,0.5c0.5,0.3,0.9,0.5,1.1,0.6
			c0.2,0.1,0.2,0.2,0.1,0.4c0,0.1,0,0.1,0,0.1c0,0,0.1,0,0.2-0.1c0.1-0.2,0.3-0.6,0.3-0.7c0.1-0.1,0.3-0.5,0.4-0.8
			c0-0.1,0-0.1,0-0.2c0,0-0.1,0-0.1,0.1c-0.1,0.3-0.3,0.4-0.5,0.3c-0.2-0.1-0.6-0.3-1.1-0.6l-0.9-0.5c-0.8-0.4-0.9-0.5-1.1-0.6
			c-0.2-0.1-0.2-0.2-0.1-0.5c0,0,0-0.1,0-0.2c0,0-0.1,0-0.1,0.1c-0.1,0.2-0.2,0.5-0.3,0.6c-0.1,0.2-0.3,0.5-0.4,0.7
			c-0.1,0.1,0,0.2,0,0.2C15.2,48.2,15.2,48.1,15.3,48.1z"/>
		<path class="st0" d="M20,46.9c0.2,0.4,0.3,0.5,0,0.8c0,0,0,0.1,0,0.1c0.1,0,0.1,0,0.2-0.1c0.2-0.2,0.3-0.5,0.4-0.6
			c0.1-0.1,0.3-0.4,0.4-0.5c0-0.1,0.1-0.1,0-0.2c-0.1,0-0.1,0-0.2,0.1c-0.1,0.2-0.2,0.2-0.3,0.1c-0.1,0-0.1-0.1-0.2-0.3l-0.3-0.5
			c0,0,0,0,0-0.1l0.8-1.2c0,0,0,0,0,0l1,0.2c0.1,0-0.1,0.3-0.1,0.3c0,0,0,0.1,0,0.1c0,0,0.1,0,0.2-0.1c0.1-0.1,0.3-0.4,0.4-0.5
			c0.1-0.1,0.3-0.3,0.3-0.4c0.1-0.2,0.1-0.3,0.1-0.3c-0.1,0-0.1,0-0.1,0c-0.2,0.2-0.5,0.2-0.9,0.1c-0.9-0.2-3.4-0.8-3.8-0.8
			c-0.2,0-0.2,0-0.3,0c0,0.1,0,0.1,0.1,0.3L20,46.9z M20.4,44.6l-0.7,1l-1-1.5c0,0,0,0,0,0l0,0L20.4,44.6z"/>
		<path class="st0" d="M22.3,38.2c0.3-0.3,0.4-0.2,0.8,0.2l1.1,1.3c0.9,1,1.7,1.1,2.7,0.3c1-0.9,0.8-1.8,0-2.8l-1-1.1
			c-0.4-0.5-0.4-0.5-0.2-0.8c0.1-0.1,0.1-0.1,0-0.2c0,0-0.1,0-0.2,0c-0.2,0.1-0.3,0.3-0.5,0.4c-0.1,0.1-0.3,0.2-0.5,0.4
			c-0.1,0.1-0.1,0.1-0.1,0.2c0,0,0.1,0,0.2,0c0.3-0.3,0.4-0.2,0.8,0.2l1,1.2c0.7,0.9,0.9,1.5,0.2,2c-0.7,0.6-1.4,0.2-1.9-0.5
			l-1.1-1.3c-0.4-0.4-0.4-0.5-0.1-0.8c0.1-0.1,0.1-0.1,0-0.1c0,0-0.1,0-0.2,0c-0.2,0.1-0.4,0.3-0.5,0.5c-0.2,0.2-0.4,0.3-0.7,0.5
			c-0.1,0.1-0.1,0.1-0.1,0.2C22.2,38.3,22.2,38.3,22.3,38.2z"/>
		<path class="st0" d="M29.4,37.1c0.3,0.5,0.2,0.6-0.1,0.7c-0.1,0-0.1,0.1-0.1,0.1c0,0.1,0.1,0.1,0.2,0c0.3-0.1,0.5-0.3,0.5-0.3
			c0.1-0.1,0.3-0.2,0.7-0.3c0.1,0,0.1-0.1,0.1-0.2c0,0-0.1,0-0.1,0c-0.3,0.2-0.5,0.2-0.8-0.3l-1.2-2.1l4.2,1.2c0.1,0,0.2,0,0.3,0
			c0.1,0,0.1-0.1,0-0.2l-1.7-3.3c-0.2-0.3-0.2-0.5,0.1-0.6c0.1,0,0.1-0.1,0.1-0.1c0-0.1-0.1,0-0.2,0c-0.3,0.1-0.4,0.3-0.5,0.3
			c-0.1,0.1-0.4,0.2-0.6,0.3c-0.1,0.1-0.2,0.1-0.1,0.2c0,0.1,0.1,0,0.1,0c0.3-0.2,0.5-0.2,0.7,0.2l1.3,2.2L28,33.7
			c-0.1,0-0.3-0.1-0.3,0c-0.1,0,0,0.1,0,0.2L29.4,37.1z"/>
		<path class="st0" d="M33.3,31.3c0.3-0.1,0.4,0,0.5,0.2c0.1,0.2,0.1,0.3,0.4,1.2l0.3,1c0.2,0.5,0.3,1,0.4,1.2
			c0.1,0.2,0,0.3-0.2,0.4c-0.1,0-0.1,0.1-0.1,0.1c0,0.1,0.1,0.1,0.2,0c0.2-0.1,0.6-0.2,0.7-0.3c0.1-0.1,0.5-0.2,0.9-0.3
			c0.1,0,0.1-0.1,0.1-0.1c0-0.1-0.1-0.1-0.1,0c-0.3,0.1-0.5,0.1-0.6-0.1c-0.1-0.2-0.3-0.7-0.5-1.2l-0.3-1c-0.3-0.8-0.4-1-0.4-1.2
			c-0.1-0.3,0-0.3,0.2-0.4c0.1,0,0.1-0.1,0.1-0.1c0,0-0.1,0-0.2,0c-0.2,0.1-0.5,0.2-0.7,0.3c-0.2,0.1-0.5,0.2-0.7,0.2
			c-0.1,0-0.2,0.1-0.1,0.1C33.1,31.3,33.2,31.3,33.3,31.3z"/>
		<path class="st0" d="M36,30.2c0.4-0.1,0.6,0.1,0.7,0.3l2.3,3.3c0.1,0.1,0.2,0.2,0.2,0.2c0.1,0,0.1-0.1,0.2-0.3l0.8-3.8
			c0.1-0.5,0.2-0.6,0.4-0.7c0.1,0,0.1,0,0.1-0.1c0-0.1-0.1-0.1-0.2-0.1c-0.2,0-0.3,0.1-0.5,0.1c-0.2,0-0.3,0-0.6,0.1
			c-0.1,0-0.2,0.1-0.2,0.1c0,0,0.1,0.1,0.1,0c0.2,0,0.3,0,0.3,0c0,0,0,0.1,0,0.2l-0.5,3l-1.5-2.3c-0.1-0.2-0.2-0.3-0.2-0.4
			c0-0.1,0.1-0.2,0.2-0.2c0.1,0,0.1,0,0.1-0.1c0-0.1-0.1-0.1-0.2,0c-0.3,0.1-0.6,0.1-0.7,0.2c-0.2,0-0.5,0.1-0.8,0.2
			c-0.1,0-0.2,0.1-0.2,0.1C35.9,30.2,36,30.2,36,30.2z"/>
		<path class="st0" d="M42,29.1c0.3,0,0.5,0,0.5,0.3c0,0.2,0,0.3,0.1,1.2l0.1,1c0,0.3,0,0.6,0,0.8c0,0.7,0,0.7-0.3,0.7
			c-0.1,0-0.1,0-0.1,0.1c0,0.1,0,0.1,0.1,0.1c0.2,0,0.6-0.1,0.7-0.1c0.6,0,1.2,0,1.8-0.1c0.1,0,0.2-0.1,0.2-0.2c0-0.1,0-0.5,0-0.7
			c0-0.1,0-0.1-0.1-0.1c-0.1,0-0.1,0-0.1,0.1c0,0.2-0.1,0.3-0.2,0.4c-0.1,0.1-0.6,0.1-0.7,0.1c-0.4,0-0.5,0-0.5-0.4
			c0-0.2,0-0.7-0.1-1.3c0,0,0,0,0,0c0,0,0.7,0,0.8,0c0.3,0,0.3,0.2,0.4,0.4c0,0,0,0.1,0.1,0.1c0.1,0,0.1-0.1,0.1-0.1
			c0-0.3,0-0.7,0-0.8c0-0.1,0-0.1-0.1-0.1c0,0-0.1,0.1-0.1,0.1c0,0-0.2,0.1-0.5,0.1c-0.2,0-0.5,0-0.6,0c0,0,0,0-0.1,0l-0.1-1.6
			c0,0,0,0,0,0c1.1-0.1,1.2,0,1.3,0.3c0,0,0,0.1,0.1,0.1c0.1,0,0.1,0,0.1-0.1c0-0.5,0-0.6,0-0.8c0,0,0-0.1-0.1-0.1
			c0,0-0.1,0.1-0.3,0.1c-0.1,0-1.3,0.1-1.5,0.1c-0.2,0-0.5,0-0.8,0c-0.1,0-0.2,0-0.2,0.1C41.9,29.1,41.9,29.1,42,29.1z"/>
		<path class="st0" d="M46.4,33.2c0.2,0,0.6,0,0.7,0c0.1,0,0.5,0.1,0.9,0.1c0.1,0,0.1,0,0.1-0.1c0-0.1,0-0.1-0.1-0.1
			c-0.5,0-0.5-0.2-0.5-0.8l0.1-0.9c0,0,0,0,0,0l0.5,0.1c0,0,0.1,0,0.1,0.1c0.2,0.3,0.3,0.6,0.5,0.8c0.4,0.7,0.7,1,1.4,1.1l0.6,0.1
			c0.1,0,0.1,0,0.1-0.1c0-0.1,0-0.1-0.1-0.1c-0.5,0-0.8-0.4-1.9-2.1c0.6-0.4,0.8-0.8,0.9-1.2c0.1-0.8-0.7-1.1-1.4-1.2
			c-0.2,0-0.6,0-0.8-0.1c-0.1,0-0.5-0.1-0.8-0.1c-0.1,0-0.2,0-0.2,0.1c0,0.1,0,0.1,0.1,0.1c0.5,0,0.5,0.1,0.4,0.7l-0.3,2.8
			c-0.1,0.6-0.1,0.7-0.4,0.7c-0.1,0-0.1,0-0.1,0.1C46.3,33.2,46.3,33.2,46.4,33.2z M47.9,29.3c0,0,0-0.1,0.3,0
			c0.5,0,0.8,0.5,0.8,1.1c0,0.5-0.3,0.9-0.8,0.9c-0.3,0-0.5-0.1-0.5-0.2L47.9,29.3z"/>
		<path class="st0" d="M52.2,34.1c0.8,0.2,1.6-0.1,1.8-0.9c0.3-1.3-1.3-1.9-1.1-2.8c0.1-0.3,0.4-0.5,0.8-0.4
			c0.4,0.1,0.7,0.5,0.6,0.8c0,0.1,0,0.1,0.1,0.2c0.1,0,0.1,0,0.1-0.2c0.1-0.4,0.2-0.6,0.2-0.7c0,0,0-0.1-0.1-0.1
			c-0.1-0.1-0.4-0.2-0.8-0.3c-0.8-0.2-1.5,0.1-1.6,0.8c-0.3,1.3,1.3,1.8,1.1,2.8c-0.1,0.3-0.4,0.6-0.9,0.4c-0.6-0.1-0.7-0.6-0.6-1
			c0-0.1,0-0.1-0.1-0.1c-0.1,0-0.1,0-0.1,0.1l-0.2,0.8C51.3,33.7,51.7,34,52.2,34.1z"/>
		<path class="st0" d="M55,34.8c0.2,0.1,0.6,0.2,0.7,0.2c0.1,0.1,0.5,0.2,0.8,0.3c0.1,0,0.2,0,0.2,0c0-0.1,0-0.1-0.1-0.1
			c-0.3-0.1-0.4-0.2-0.4-0.4c0.1-0.2,0.2-0.7,0.4-1.2l0.4-1c0.3-0.8,0.4-1,0.4-1.1c0.1-0.2,0.2-0.3,0.5-0.2c0.1,0,0.1,0,0.2,0
			c0,0,0-0.1-0.1-0.1c-0.2-0.1-0.5-0.2-0.7-0.2c-0.2-0.1-0.5-0.2-0.7-0.3c-0.1,0-0.2,0-0.2,0c0,0.1,0,0.1,0.1,0.1
			c0.3,0.1,0.3,0.2,0.2,0.4c-0.1,0.2-0.1,0.3-0.4,1.2l-0.4,1c-0.2,0.5-0.4,1-0.5,1.2c-0.1,0.2-0.2,0.2-0.4,0.2c-0.1,0-0.1,0-0.1,0
			C54.9,34.7,54.9,34.8,55,34.8z"/>
		<path class="st0" d="M57.8,35.7c0,0,0,0.1,0.1,0.1c0.2,0.1,0.5,0.3,0.7,0.3c0.3,0.1,0.7,0.5,1.1,0.7c1.3,0.7,2.7,0.6,3.4-0.7
			c0.8-1.4,0-2.5-1.5-3.3c-0.3-0.2-0.6-0.3-0.8-0.4c-0.1-0.1-0.5-0.3-0.7-0.4c-0.1-0.1-0.2-0.1-0.2,0c0,0,0,0.1,0.1,0.1
			c0.3,0.2,0.4,0.3,0.2,0.5c-0.1,0.2-0.2,0.3-0.6,1.1l-0.5,0.9c-0.7,1.3-0.8,1.3-1,1.2C57.9,35.7,57.9,35.7,57.8,35.7z M59.5,35.4
			l1.3-2.4c0.1-0.2,0.1-0.2,0.5,0c1.1,0.6,1.6,1.7,0.9,2.8c-0.6,1.1-1.4,1.3-2.5,0.7C59.1,36.2,59.1,36.1,59.5,35.4z"/>
		<path class="st0" d="M62.5,38.4c0,0-0.1-0.1-0.1,0c0,0,0,0.1,0.1,0.2c0.2,0.2,0.5,0.4,0.5,0.4c0.1,0.1,0.3,0.3,0.5,0.4
			c0.1,0,0.1,0.1,0.2,0c0,0,0-0.1-0.1-0.2c-0.1-0.1-0.1-0.2-0.1-0.3c0,0,0.2-0.1,0.3-0.2l0.6-0.3c0,0,0,0,0.1,0l1.1,0.9
			c0,0,0,0,0,0.1l-0.3,1c0,0.1-0.3-0.1-0.3-0.1c0,0-0.1,0-0.1,0c0,0,0,0.1,0.1,0.2c0.1,0.1,0.4,0.3,0.5,0.4c0.1,0.1,0.3,0.3,0.4,0.4
			c0.2,0.2,0.3,0.2,0.3,0.1c0-0.1,0-0.1,0-0.1c-0.2-0.2-0.1-0.5,0-0.9c0.3-0.9,1.1-3.3,1.2-3.7c0-0.2,0-0.2,0-0.3c0,0-0.1,0-0.3,0.1
			l-3.5,1.9C63,38.6,62.8,38.6,62.5,38.4z M66.2,37.4C66.2,37.4,66.2,37.4,66.2,37.4L66.2,37.4L65.6,39l-0.9-0.8L66.2,37.4z"/>
		<path class="st0" d="M66.9,42.1C66.8,42,66.7,42,66.7,42c0,0,0,0.1,0,0.2c0.1,0.2,0.4,0.5,0.5,0.6c0.2,0.2,0.5,0.7,0.7,1
			c0.9,1.1,2.3,1.6,3.5,0.6c1.2-1,0.9-2.3-0.2-3.7c-0.2-0.3-0.5-0.5-0.6-0.7c-0.1-0.1-0.3-0.4-0.5-0.7c-0.1-0.1-0.1-0.1-0.2-0.1
			c0,0,0,0.1,0,0.2c0.2,0.2,0.2,0.4,0,0.6c-0.1,0.1-0.3,0.2-0.9,0.8l-0.8,0.7C67.1,42.3,67,42.3,66.9,42.1z M68.4,42.3l2.1-1.7
			c0.1-0.1,0.2-0.1,0.4,0.2c0.8,1,0.8,2.2-0.1,3c-1,0.8-1.8,0.7-2.6-0.2C67.7,42.9,67.8,42.8,68.4,42.3z"/>
		<path class="st0" d="M73.1,52.3c0.1,0.1,0.1,0.1,0.2,0.1c0.2,0,0.7-0.2,0.8-0.2c0.1,0,0.1-0.1,0.1-0.1c0-0.1-0.1-0.1-0.2,0
			c-0.5,0.1-0.8-0.1-1.1-0.9c-0.4-0.9-0.1-1.9,1.1-2.5c1-0.4,1.9-0.3,2.3,0.8c0.3,0.6,0.3,1.4-0.2,1.6c-0.1,0-0.1,0.1-0.1,0.1
			c0,0.1,0.1,0.1,0.2,0c0.1,0,0.4-0.2,0.6-0.2c0.2-0.1,0.3-0.1,0.3-0.1c0,0,0.1-0.1,0-0.1C77,50.5,77,50,76.7,49.4
			c-0.6-1.3-1.8-2.1-3.1-1.5c-1.5,0.6-1.7,2.2-1.1,3.5C72.7,51.7,72.9,52.1,73.1,52.3z"/>
		<path class="st0" d="M73.5,53.1C73.5,53.1,73.5,53,73.5,53.1c-0.2-0.1-0.2,0-0.1,0.1c0.1,0.3,0.2,0.6,0.2,0.7
			c0,0.2,0.1,0.4,0.1,0.6c0,0.1,0,0.1,0.1,0.1c0.1,0,0.1-0.1,0-0.2c0-0.2,0-0.2,0.1-0.3c0.1,0,0.2,0,0.4,0l0.6,0.1c0,0,0,0,0,0
			l0.3,1.4c0,0,0,0,0,0.1l-0.9,0.6c-0.1,0-0.2-0.3-0.2-0.3c0,0,0-0.1-0.1-0.1c-0.1,0-0.1,0.1,0,0.2c0,0.1,0.1,0.5,0.2,0.6
			c0,0.2,0.1,0.4,0.1,0.6c0.1,0.2,0.1,0.3,0.2,0.3c0.1,0,0.1-0.1,0.1-0.1c-0.1-0.3,0.2-0.5,0.5-0.7c0.8-0.6,2.8-2.1,3.1-2.3
			c0.1-0.1,0.2-0.2,0.2-0.2c0-0.1-0.1-0.1-0.3-0.1l-3.9-0.6C73.8,53.6,73.6,53.5,73.5,53.1z M77.1,54.5
			C77.1,54.5,77.1,54.5,77.1,54.5L77.1,54.5L77.1,54.5l-1.5,1l-0.3-1.2L77.1,54.5z"/>
		<path class="st0" d="M78.2,57.7c-0.1,0-0.1,0-0.1,0.1c0,0.1,0,0.1,0.1,0.1c0.2,0,0.3,0.2,0.4,0.6l0.1,0.8l-2.9,0.2
			c-0.9,0.1-1,0-1-0.3c0-0.1,0-0.1-0.1-0.1c-0.1,0-0.1,0-0.1,0.1c0,0.2,0.1,0.6,0.1,0.7c0,0.2,0,0.5,0.1,0.9c0,0.1,0,0.1,0.1,0.1
			c0.1,0,0.1-0.1,0.1-0.1c0-0.5,0-0.5,1-0.6l2.9-0.2l0,0.7c0,0.5-0.1,0.7-0.3,0.7c-0.1,0-0.1,0.1-0.1,0.1c0,0,0,0.1,0.1,0.1
			c0.1,0,0.6,0,0.7,0c0.1,0,0.2,0,0.1-0.1c0,0-0.1-0.2-0.1-0.6L79,58.4c0-0.3,0.1-0.5,0.1-0.5c0-0.1,0-0.1-0.1-0.1
			C78.9,57.7,78.4,57.7,78.2,57.7z"/>
		<path class="st0" d="M79.9,66.3c0,0-0.5-0.9-0.7-1.2c0-1.5-1.2-2.2-2.1-2.3c-1-0.1-2.4,0.5-2.5,2.2c-0.1,1.5,0.8,2.6,2.2,2.7
			c1.3,0.1,2.2-0.7,2.4-2.1c0.1,0.5,0.3,1.1,0.3,1.1c0,0.1,0.1,0.1,0.2,0.1c0.1-0.1,0.2-0.1,0.2-0.1C79.9,66.5,80,66.4,79.9,66.3z
			 M78.9,65.3c-0.1,0.9-0.9,1.6-2.2,1.5c-1.7-0.1-1.8-1.1-1.7-1.5c0.1-1.1,1.1-1.7,2.3-1.6C78.7,63.8,79,64.6,78.9,65.3z"/>
		<path class="st0" d="M78.3,69.7c-0.1,0.4-0.2,0.4-0.9,0.2l-2.2-0.6c-0.9-0.2-1-0.3-0.9-0.6c0-0.1,0-0.1,0-0.1
			c-0.1,0-0.1,0-0.1,0.1c-0.1,0.2-0.1,0.6-0.2,0.7c-0.1,0.5-0.3,0.8-0.5,1.7c-0.1,0.3-0.1,0.4,0.1,0.4c0.2,0.1,0.6,0.3,0.7,0.3
			c0.1,0,0.1,0,0.1,0c0-0.1,0-0.1-0.1-0.1c-0.4-0.2-0.5-0.3-0.3-0.9c0.2-0.7,0.3-0.8,1-0.6l2.2,0.6c0.7,0.2,0.7,0.2,0.6,0.6
			c0,0.1,0,0.1,0.1,0.2c0,0,0.1,0,0.1-0.1c0.1-0.2,0.2-0.6,0.2-0.8c0-0.2,0.2-0.5,0.2-0.8c0-0.1,0-0.2,0-0.2
			C78.4,69.6,78.4,69.6,78.3,69.7z"/>
		<path class="st0" d="M76.9,74.4c-0.1,0.3-0.2,0.3-0.4,0.2c-0.2-0.1-0.3-0.1-1.1-0.5l-0.9-0.4c-0.5-0.2-0.9-0.4-1.2-0.5
			C73,73.1,73,73,73.1,72.8c0-0.1,0-0.1,0-0.1c-0.1,0-0.1,0-0.1,0.1c-0.1,0.2-0.2,0.6-0.3,0.7c-0.1,0.1-0.2,0.5-0.4,0.8
			c0,0.1,0,0.2,0,0.2c0.1,0,0.1,0,0.1-0.1c0.1-0.3,0.2-0.4,0.4-0.4c0.2,0.1,0.7,0.2,1.2,0.5l0.9,0.4c0.8,0.3,1,0.4,1.1,0.5
			c0.2,0.1,0.3,0.2,0.2,0.5c0,0.1,0,0.1,0,0.2c0,0,0.1,0,0.1-0.1c0.1-0.2,0.2-0.5,0.3-0.7c0.1-0.2,0.2-0.5,0.3-0.7
			c0-0.1,0-0.2,0-0.2C77,74.2,77,74.3,76.9,74.4z"/>
		<path class="st0" d="M73.9,76.6c-1.4-0.9-2.7-0.1-3.5,1.2c-0.2,0.3-0.4,0.7-0.4,1c0,0.1,0,0.2,0.1,0.2c0.1,0.2,0.5,0.5,0.6,0.5
			c0.1,0,0.1,0,0.1,0c0-0.1,0-0.1-0.1-0.2c-0.3-0.4-0.4-0.7,0-1.4c0.5-0.9,1.5-1.2,2.7-0.5c0.9,0.6,1.3,1.4,0.8,2.3
			c-0.3,0.6-0.9,1.1-1.5,0.8c-0.1-0.1-0.2-0.1-0.2,0c0,0.1,0,0.1,0.1,0.2c0.1,0.1,0.4,0.2,0.5,0.3c0.2,0.1,0.2,0.2,0.3,0.2
			c0,0,0.1,0,0.1-0.1c0.2-0.3,0.5-0.6,0.9-1.2C75.2,78.8,75.1,77.3,73.9,76.6z"/>
		<path class="st0" d="M69.6,80.5c-0.2-0.4-0.2-0.6,0-0.8c0,0,0.1-0.1,0-0.1c0,0-0.1,0-0.2,0.1c-0.2,0.2-0.4,0.5-0.4,0.5
			c-0.1,0.1-0.3,0.3-0.4,0.5c-0.1,0.1-0.1,0.1,0,0.2c0,0,0.1,0,0.2-0.1c0.1-0.1,0.2-0.1,0.3-0.1c0,0,0.1,0.2,0.2,0.3l0.3,0.6
			c0,0,0,0,0,0.1l-0.9,1.1c0,0,0,0-0.1,0l-1-0.3c-0.1,0,0.1-0.3,0.1-0.3c0,0,0-0.1,0-0.1c0,0-0.1,0-0.2,0.1
			c-0.1,0.1-0.3,0.4-0.4,0.5c-0.1,0.1-0.3,0.3-0.4,0.4c-0.2,0.2-0.2,0.3-0.1,0.3c0.1,0,0.1,0,0.1,0c0.2-0.2,0.5-0.1,0.9,0
			c0.9,0.3,3.3,1.1,3.7,1.2c0.2,0,0.2,0,0.3,0c0,0,0-0.1-0.1-0.3L69.6,80.5z M70.6,83.3L70.6,83.3l-1.7-0.6l0.8-0.9L70.6,83.3
			C70.6,83.3,70.6,83.3,70.6,83.3L70.6,83.3z"/>
		<path class="st0" d="M30.1,87.5c-0.3-0.2-0.6-0.4-0.8-0.4c-0.1-0.1-0.5-0.3-0.7-0.5c-0.1-0.1-0.2-0.1-0.2,0c0,0,0,0.1,0.1,0.1
			c0.3,0.2,0.3,0.3,0.2,0.5c-0.1,0.2-0.2,0.3-0.6,1.1l-0.5,0.9c-0.7,1.3-0.8,1.3-1,1.2c-0.1-0.1-0.2-0.1-0.2,0c0,0,0,0.1,0.1,0.2
			c0.2,0.1,0.5,0.3,0.6,0.4c0.2,0.1,0.7,0.5,1,0.7c1.3,0.8,2.7,0.7,3.5-0.6C32.3,89.5,31.6,88.4,30.1,87.5z M30.7,90.6
			c-0.7,1.1-1.4,1.3-2.5,0.6c-0.7-0.4-0.6-0.5-0.2-1.2l1.4-2.3c0.1-0.2,0.1-0.2,0.5,0C30.9,88.4,31.4,89.5,30.7,90.6z"/>
		<path class="st0" d="M36.3,90.5c-0.1,0-1.2-0.4-1.4-0.5c-0.2-0.1-0.5-0.2-0.8-0.3c-0.1,0-0.2,0-0.2,0c0,0.1,0,0.1,0.1,0.1
			c0.3,0.1,0.4,0.2,0.3,0.5c-0.1,0.2-0.1,0.3-0.4,1.2l-0.4,1c-0.1,0.3-0.2,0.6-0.3,0.8c-0.2,0.6-0.3,0.7-0.6,0.5c-0.1,0-0.1,0-0.1,0
			c0,0.1,0,0.1,0.1,0.1c0.2,0.1,0.6,0.2,0.7,0.2c0.6,0.2,1.1,0.4,1.7,0.6c0.1,0,0.2,0,0.3-0.1c0.1-0.1,0.2-0.5,0.3-0.6
			c0-0.1,0-0.1,0-0.2c-0.1,0-0.1,0-0.1,0.1c-0.1,0.2-0.2,0.3-0.4,0.3c-0.2,0-0.6-0.1-0.7-0.2c-0.4-0.1-0.4-0.2-0.3-0.6
			c0.1-0.2,0.2-0.6,0.5-1.3c0,0,0,0,0,0c0,0,0.6,0.3,0.7,0.3c0.3,0.1,0.2,0.3,0.2,0.5c0,0,0,0.1,0,0.1c0.1,0,0.1,0,0.1-0.1
			c0.1-0.3,0.3-0.7,0.3-0.7c0-0.1,0-0.1,0-0.1c0,0-0.1,0-0.2,0.1c-0.1,0-0.2,0-0.5-0.1C35,92.1,34.7,92,34.7,92c0,0,0,0,0-0.1
			l0.5-1.5c0,0,0,0,0,0c1.1,0.4,1.1,0.4,1,0.8c0,0,0,0.1,0,0.1c0.1,0,0.1,0,0.1-0.1c0.2-0.4,0.3-0.6,0.3-0.7c0,0,0-0.1,0-0.1
			C36.6,90.5,36.5,90.5,36.3,90.5z"/>
		<path class="st0" d="M44.6,92c-0.3-0.1-0.7-0.2-1.4-0.3c-1.4-0.1-2.7,0.5-2.8,2c-0.2,1.7,1.1,2.5,2.5,2.7c0.4,0,0.8,0,1.1,0
			c0.1,0,0.1-0.1,0.2-0.2c0.1-0.2,0.2-0.7,0.2-0.8c0-0.1,0-0.1-0.1-0.1c-0.1,0-0.1,0-0.1,0.1c-0.2,0.5-0.5,0.6-1.3,0.6
			c-1-0.1-1.7-0.9-1.6-2.2c0.1-1.1,0.7-1.8,1.8-1.7c0.7,0.1,1.4,0.4,1.3,1c0,0.1,0,0.2,0.1,0.2c0.1,0,0.1,0,0.1-0.1
			c0-0.1,0.1-0.4,0.1-0.6c0-0.2,0.1-0.3,0.1-0.3C44.7,92.1,44.6,92,44.6,92z"/>
		<path class="st0" d="M51.7,95.7c-0.3,0-0.5,0-0.5-0.2c-0.1-0.3-0.1-0.7-0.2-1.2l-0.1-1c-0.1-0.9-0.1-1-0.1-1.2
			c0-0.2,0.1-0.3,0.3-0.4c0.1,0,0.1,0,0.1-0.1c0-0.1-0.1-0.1-0.2-0.1c-0.2,0-0.6,0.1-0.7,0.1c-0.2,0-0.5,0-0.8,0.1
			c-0.1,0-0.2,0-0.1,0.1c0,0.1,0.1,0.1,0.1,0.1c0.3,0,0.4,0,0.5,0.3c0,0.2,0.1,0.3,0.2,1.2l0,0.3c0,0,0,0,0,0l-2.2,0.2c0,0,0,0,0,0
			l0-0.2c-0.1-0.9-0.1-1-0.1-1.2c0-0.3,0.1-0.3,0.3-0.4c0.1,0,0.1,0,0.1-0.1c0-0.1-0.1-0.1-0.2-0.1c-0.2,0-0.6,0.1-0.7,0.1
			c-0.2,0-0.5,0-0.8,0.1c-0.1,0-0.2,0-0.1,0.1c0,0.1,0.1,0.1,0.1,0.1c0.3,0,0.4,0,0.5,0.3c0,0.2,0,0.3,0.1,1.2l0.1,1
			c0.1,0.5,0.1,1,0.1,1.2c0,0.3,0,0.3-0.3,0.4c-0.1,0-0.1,0-0.1,0.1c0,0.1,0.1,0.1,0.2,0.1c0.2,0,0.6-0.1,0.7-0.1
			c0.2,0,0.5,0,0.9-0.1c0.1,0,0.1,0,0.1-0.1c0-0.1-0.1-0.1-0.1-0.1c-0.3,0-0.5,0-0.5-0.2c-0.1-0.2-0.1-0.7-0.2-1.2l0-0.3
			c0,0,0,0,0,0l2.2-0.2c0,0,0,0,0,0l0,0.4c0.1,0.5,0.1,1,0.1,1.2c0,0.3,0,0.3-0.3,0.4c-0.1,0-0.1,0-0.1,0.1c0,0,0.1,0.1,0.2,0.1
			c0.2,0,0.6-0.1,0.7-0.1c0.2,0,0.5,0,0.9-0.1c0.1,0,0.1-0.1,0.1-0.1C51.8,95.7,51.8,95.7,51.7,95.7z"/>
		<path class="st0" d="M55.9,94.6c-0.3,0.1-0.5,0.1-0.6-0.1c-0.1-0.2-0.2-0.7-0.4-1.2l-0.3-1c-0.2-0.8-0.3-1-0.3-1.2
			c0-0.3,0-0.3,0.3-0.4c0.1,0,0.1,0,0.1-0.1c0,0-0.1-0.1-0.2,0c-0.2,0.1-0.5,0.2-0.7,0.2c-0.2,0-0.5,0.1-0.7,0.2
			C53,91,52.9,91,53,91.1c0,0.1,0.1,0.1,0.1,0c0.3-0.1,0.4,0,0.5,0.2c0.1,0.2,0.1,0.3,0.4,1.2l0.3,1c0.2,0.5,0.3,1,0.3,1.2
			c0,0.3,0,0.3-0.3,0.4c-0.1,0-0.1,0.1-0.1,0.1c0,0.1,0.1,0.1,0.2,0c0.2-0.1,0.6-0.2,0.7-0.2c0.1,0,0.5-0.1,0.9-0.2
			c0.1,0,0.1-0.1,0.1-0.1C56,94.6,56,94.6,55.9,94.6z"/>
		<path class="st0" d="M60.7,91.8c0-0.1-0.1-0.1-0.1-0.1c-0.1,0,0,0.1,0,0.1c0.1,0.4,0.1,0.6-0.5,0.8C59.4,93,59.3,93,59,92.2
			l-1-2.1c-0.3-0.7-0.3-0.7,0.1-0.9c0.1,0,0.1-0.1,0.1-0.1c0,0-0.1-0.1-0.2,0c-0.2,0.1-0.6,0.3-0.7,0.3c-0.1,0.1-0.5,0.2-0.7,0.3
			c-0.1,0-0.1,0.1-0.1,0.1c0,0.1,0.1,0.1,0.2,0c0.4-0.2,0.4-0.1,0.7,0.5l0.9,2.1c0.4,0.9,0.4,1,0.1,1.1c-0.1,0-0.1,0.1-0.1,0.1
			c0,0.1,0.1,0.1,0.2,0c0.2-0.1,0.5-0.3,0.7-0.3c0.4-0.2,0.8-0.3,1.6-0.7c0.3-0.1,0.3-0.2,0.3-0.3C61,92.3,60.8,91.8,60.7,91.8z"/>
		<path class="st0" d="M65,89.2c0-0.1-0.1-0.1-0.1-0.1c-0.1,0,0,0.1,0,0.1c0.1,0.2,0.1,0.3,0,0.5c-0.1,0.1-0.5,0.4-0.6,0.5
			c-0.4,0.2-0.4,0.2-0.6-0.1c-0.1-0.1-0.4-0.6-0.7-1.1c0,0,0,0,0,0c0,0,0.6-0.4,0.7-0.4c0.2-0.2,0.4,0,0.5,0.2c0,0,0.1,0.1,0.1,0
			c0.1,0,0-0.1,0-0.2c-0.2-0.3-0.3-0.7-0.4-0.7c0,0-0.1,0-0.1,0c0,0,0,0.1-0.1,0.2c0,0.1-0.1,0.2-0.4,0.4c-0.2,0.1-0.5,0.3-0.5,0.3
			c0,0,0,0-0.1,0l-0.9-1.3c0,0,0,0,0,0c1-0.6,1-0.6,1.2-0.3c0,0,0.1,0.1,0.1,0c0.1,0,0.1-0.1,0-0.1c-0.3-0.4-0.3-0.6-0.4-0.7
			c0,0-0.1-0.1-0.1,0c0,0-0.1,0.1-0.3,0.2c-0.1,0.1-1.1,0.7-1.2,0.8c-0.1,0.1-0.5,0.3-0.7,0.5c-0.1,0.1-0.1,0.1-0.1,0.2
			c0,0,0.1,0,0.2,0c0.3-0.2,0.4-0.2,0.6,0c0.1,0.2,0.2,0.3,0.7,1l0.6,0.9c0.2,0.3,0.3,0.5,0.4,0.7c0.4,0.5,0.4,0.6,0.1,0.8
			c-0.1,0-0.1,0.1-0.1,0.1c0,0,0.1,0,0.2,0c0.2-0.1,0.5-0.3,0.6-0.4c0.5-0.3,1-0.6,1.5-0.9c0.1-0.1,0.1-0.1,0.1-0.3
			C65.2,89.7,65.1,89.4,65,89.2z"/>
	</g>
</g>
</svg>
